  0
SECTION
  2
HEADER
  9
$ACADVER
  1
AC1027
  9
$ACADMAINTVER
 70
   105
  9
$DWGCODEPAGE
  3
ANSI_1251
  9
$LASTSAVEDBY
  1
ear
  9
$REQUIREDVERSIONS
160
                 0
  9
$INSBASE
 10
0.0
 20
0.0
 30
0.0
  9
$EXTMIN
 10
-532.6365281284258
 20
-209.6573078726847
 30
0.0
  9
$EXTMAX
 10
621.59943
 20
575.725177
 30
0.0
  9
$LIMMIN
 10
0.0
 20
0.0
  9
$LIMMAX
 10
420.0
 20
297.0
  9
$ORTHOMODE
 70
     0
  9
$REGENMODE
 70
     1
  9
$FILLMODE
 70
     1
  9
$QTEXTMODE
 70
     0
  9
$MIRRTEXT
 70
     1
  9
$LTSCALE
 40
1.0
  9
$ATTMODE
 70
     1
  9
$TEXTSIZE
 40
3.5
  9
$TRACEWID
 40
1.0
  9
$TEXTSTYLE
  7
Standard
  9
$CLAYER
  8
0
  9
$CELTYPE
  6
ByLayer
  9
$CECOLOR
 62
   256
  9
$CELTSCALE
 40
1.0
  9
$DISPSILH
 70
     0
  9
$DIMSCALE
 40
1.0
  9
$DIMASZ
 40
3.556
  9
$DIMEXO
 40
1.0
  9
$DIMDLI
 40
3.75
  9
$DIMRND
 40
0.0
  9
$DIMDLE
 40
0.0
  9
$DIMEXE
 40
1.0
  9
$DIMTP
 40
0.0
  9
$DIMTM
 40
0.0
  9
$DIMTXT
 40
3.5
  9
$DIMCEN
 40
2.5
  9
$DIMTSZ
 40
0.0
  9
$DIMTOL
 70
     0
  9
$DIMLIM
 70
     0
  9
$DIMTIH
 70
     1
  9
$DIMTOH
 70
     1
  9
$DIMSE1
 70
     0
  9
$DIMSE2
 70
     0
  9
$DIMTAD
 70
     1
  9
$DIMZIN
 70
     0
  9
$DIMBLK
  1

  9
$DIMASO
 70
     1
  9
$DIMSHO
 70
     1
  9
$DIMPOST
  1

  9
$DIMAPOST
  1

  9
$DIMALT
 70
     0
  9
$DIMALTD
 70
     3
  9
$DIMALTF
 40
0.0393700787
  9
$DIMLFAC
 40
1.0
  9
$DIMTOFL
 70
     1
  9
$DIMTVP
 40
0.0
  9
$DIMTIX
 70
     0
  9
$DIMSOXD
 70
     0
  9
$DIMSAH
 70
     0
  9
$DIMBLK1
  1

  9
$DIMBLK2
  1

  9
$DIMSTYLE
  2
ISO-25
  9
$DIMCLRD
 70
     0
  9
$DIMCLRE
 70
     0
  9
$DIMCLRT
 70
     0
  9
$DIMTFAC
 40
1.0
  9
$DIMGAP
 40
1.524
  9
$DIMJUST
 70
     0
  9
$DIMSD1
 70
     0
  9
$DIMSD2
 70
     0
  9
$DIMTOLJ
 70
     0
  9
$DIMTZIN
 70
     0
  9
$DIMALTZ
 70
     0
  9
$DIMALTTZ
 70
     0
  9
$DIMUPT
 70
     0
  9
$DIMDEC
 70
     2
  9
$DIMTDEC
 70
     2
  9
$DIMALTU
 70
     2
  9
$DIMALTTD
 70
     3
  9
$DIMTXSTY
  7
Standard
  9
$DIMAUNIT
 70
     0
  9
$DIMADEC
 70
     2
  9
$DIMALTRND
 40
0.0
  9
$DIMAZIN
 70
     0
  9
$DIMDSEP
 70
    44
  9
$DIMATFIT
 70
     3
  9
$DIMFRAC
 70
     0
  9
$DIMLDRBLK
  1

  9
$DIMLUNIT
 70
     2
  9
$DIMLWD
 70
    -2
  9
$DIMLWE
 70
    -2
  9
$DIMTMOVE
 70
     0
  9
$DIMFXL
 40
1.0
  9
$DIMFXLON
 70
     0
  9
$DIMJOGANG
 40
0.7853981633974483
  9
$DIMTFILL
 70
     0
  9
$DIMTFILLCLR
 70
     0
  9
$DIMARCSYM
 70
     0
  9
$DIMLTYPE
  6

  9
$DIMLTEX1
  6

  9
$DIMLTEX2
  6

  9
$DIMTXTDIRECTION
 70
     0
  9
$LUNITS
 70
     2
  9
$LUPREC
 70
     2
  9
$SKETCHINC
 40
1.0
  9
$FILLETRAD
 40
10.0
  9
$AUNITS
 70
     0
  9
$AUPREC
 70
     2
  9
$MENU
  1
.
  9
$ELEVATION
 40
0.0
  9
$PELEVATION
 40
0.0
  9
$THICKNESS
 40
0.0
  9
$LIMCHECK
 70
     0
  9
$CHAMFERA
 40
0.0
  9
$CHAMFERB
 40
0.0
  9
$CHAMFERC
 40
0.0
  9
$CHAMFERD
 40
0.0
  9
$SKPOLY
 70
     0
  9
$TDCREATE
 40
2459526.843588819
  9
$TDUCREATE
 40
2459526.635255486
  9
$TDUPDATE
 40
2460994.411544896
  9
$TDUUPDATE
 40
2460994.203211563
  9
$TDINDWG
 40
0.0155811690
  9
$TDUSRTIMER
 40
0.0155811458
  9
$USRTIMER
 70
     1
  9
$ANGBASE
 50
0.0
  9
$ANGDIR
 70
     0
  9
$PDMODE
 70
     0
  9
$PDSIZE
 40
-1.0
  9
$PLINEWID
 40
0.0
  9
$SPLFRAME
 70
     0
  9
$SPLINETYPE
 70
     6
  9
$SPLINESEGS
 70
     8
  9
$HANDSEED
  5
AFE
  9
$SURFTAB1
 70
     6
  9
$SURFTAB2
 70
     6
  9
$SURFTYPE
 70
     6
  9
$SURFU
 70
     6
  9
$SURFV
 70
     6
  9
$UCSBASE
  2

  9
$UCSNAME
  2

  9
$UCSORG
 10
0.0
 20
0.0
 30
0.0
  9
$UCSXDIR
 10
1.0
 20
0.0
 30
0.0
  9
$UCSYDIR
 10
0.0
 20
1.0
 30
0.0
  9
$UCSORTHOREF
  2

  9
$UCSORTHOVIEW
 70
     0
  9
$UCSORGTOP
 10
0.0
 20
0.0
 30
0.0
  9
$UCSORGBOTTOM
 10
0.0
 20
0.0
 30
0.0
  9
$UCSORGLEFT
 10
0.0
 20
0.0
 30
0.0
  9
$UCSORGRIGHT
 10
0.0
 20
0.0
 30
0.0
  9
$UCSORGFRONT
 10
0.0
 20
0.0
 30
0.0
  9
$UCSORGBACK
 10
0.0
 20
0.0
 30
0.0
  9
$PUCSBASE
  2

  9
$PUCSNAME
  2

  9
$PUCSORG
 10
0.0
 20
0.0
 30
0.0
  9
$PUCSXDIR
 10
1.0
 20
0.0
 30
0.0
  9
$PUCSYDIR
 10
0.0
 20
1.0
 30
0.0
  9
$PUCSORTHOREF
  2

  9
$PUCSORTHOVIEW
 70
     0
  9
$PUCSORGTOP
 10
0.0
 20
0.0
 30
0.0
  9
$PUCSORGBOTTOM
 10
0.0
 20
0.0
 30
0.0
  9
$PUCSORGLEFT
 10
0.0
 20
0.0
 30
0.0
  9
$PUCSORGRIGHT
 10
0.0
 20
0.0
 30
0.0
  9
$PUCSORGFRONT
 10
0.0
 20
0.0
 30
0.0
  9
$PUCSORGBACK
 10
0.0
 20
0.0
 30
0.0
  9
$USERI1
 70
     0
  9
$USERI2
 70
     0
  9
$USERI3
 70
     0
  9
$USERI4
 70
     0
  9
$USERI5
 70
     0
  9
$USERR1
 40
0.0
  9
$USERR2
 40
0.0
  9
$USERR3
 40
0.0
  9
$USERR4
 40
0.0
  9
$USERR5
 40
0.0
  9
$WORLDVIEW
 70
     1
  9
$SHADEDGE
 70
     3
  9
$SHADEDIF
 70
    70
  9
$TILEMODE
 70
     1
  9
$MAXACTVP
 70
    64
  9
$PINSBASE
 10
0.0
 20
0.0
 30
0.0
  9
$PLIMCHECK
 70
     0
  9
$PEXTMIN
 10
1.000000000000000E+20
 20
1.000000000000000E+20
 30
1.000000000000000E+20
  9
$PEXTMAX
 10
-1.000000000000000E+20
 20
-1.000000000000000E+20
 30
-1.000000000000000E+20
  9
$PLIMMIN
 10
0.0
 20
0.0
  9
$PLIMMAX
 10
420.0
 20
297.0
  9
$UNITMODE
 70
     0
  9
$VISRETAIN
 70
     1
  9
$PLINEGEN
 70
     0
  9
$PSLTSCALE
 70
     1
  9
$TREEDEPTH
 70
  3020
  9
$CMLSTYLE
  2
Standard
  9
$CMLJUST
 70
     0
  9
$CMLSCALE
 40
20.0
  9
$PROXYGRAPHICS
 70
     1
  9
$MEASUREMENT
 70
     1
  9
$CELWEIGHT
370
    -1
  9
$ENDCAPS
280
     0
  9
$JOINSTYLE
280
     0
  9
$LWDISPLAY
290
     1
  9
$INSUNITS
 70
     4
  9
$HYPERLINKBASE
  1

  9
$STYLESHEET
  1

  9
$XEDIT
290
     1
  9
$CEPSNTYPE
380
     0
  9
$PSTYLEMODE
290
     1
  9
$FINGERPRINTGUID
  2
{8331B186-4B10-41F1-BAE9-A134839CBDC9}
  9
$VERSIONGUID
  2
{73B42050-5F7E-4887-9CF2-155548A9645B}
  9
$EXTNAMES
290
     1
  9
$PSVPSCALE
 40
0.0
  9
$OLESTARTUP
290
     0
  9
$SORTENTS
280
   127
  9
$INDEXCTL
280
     0
  9
$HIDETEXT
280
     0
  9
$XCLIPFRAME
280
     2
  9
$HALOGAP
280
     0
  9
$OBSCOLOR
 70
   257
  9
$OBSLTYPE
280
     0
  9
$INTERSECTIONDISPLAY
280
     0
  9
$INTERSECTIONCOLOR
 70
   257
  9
$DIMASSOC
280
     1
  9
$PROJECTNAME
  1

  9
$CAMERADISPLAY
290
     0
  9
$LENSLENGTH
 40
50.0
  9
$CAMERAHEIGHT
 40
0.0
  9
$STEPSPERSEC
 40
2.0
  9
$STEPSIZE
 40
6.0
  9
$3DDWFPREC
 40
2.0
  9
$PSOLWIDTH
 40
0.25
  9
$PSOLHEIGHT
 40
4.0
  9
$LOFTANG1
 40
1.570796326794896
  9
$LOFTANG2
 40
1.570796326794896
  9
$LOFTMAG1
 40
0.0
  9
$LOFTMAG2
 40
0.0
  9
$LOFTPARAM
 70
     7
  9
$LOFTNORMALS
280
     1
  9
$LATITUDE
 40
37.795
  9
$LONGITUDE
 40
-122.394
  9
$NORTHDIRECTION
 40
0.0
  9
$TIMEZONE
 70
 -8000
  9
$LIGHTGLYPHDISPLAY
280
     1
  9
$TILEMODELIGHTSYNCH
280
     1
  9
$CMATERIAL
347
A68
  9
$SOLIDHIST
280
     0
  9
$SHOWHIST
280
     1
  9
$DWFFRAME
280
     2
  9
$DGNFRAME
280
     0
  9
$REALWORLDSCALE
290
     1
  9
$INTERFERECOLOR
 62
     1
  9
$INTERFEREOBJVS
345
A8A
  9
$INTERFEREVPVS
346
A87
  9
$CSHADOW
280
     0
  9
$SHADOWPLANELOCATION
 40
0.0
  0
ENDSEC
  0
SECTION
  2
CLASSES
  0
CLASS
  1
ACDBDICTIONARYWDFLT
  2
AcDbDictionaryWithDefault
  3
ObjectDBX Classes
 90
        0
 91
        1
280
     0
281
     0
  0
CLASS
  1
VISUALSTYLE
  2
AcDbVisualStyle
  3
ObjectDBX Classes
 90
     4095
 91
       24
280
     0
281
     0
  0
CLASS
  1
MATERIAL
  2
AcDbMaterial
  3
ObjectDBX Classes
 90
     1153
 91
        3
280
     0
281
     0
  0
CLASS
  1
SCALE
  2
AcDbScale
  3
ObjectDBX Classes
 90
     1153
 91
       33
280
     0
281
     0
  0
CLASS
  1
TABLESTYLE
  2
AcDbTableStyle
  3
ObjectDBX Classes
 90
     4095
 91
        1
280
     0
281
     0
  0
CLASS
  1
MLEADERSTYLE
  2
AcDbMLeaderStyle
  3
ACDB_MLEADERSTYLE_CLASS
 90
     4095
 91
        1
280
     0
281
     0
  0
CLASS
  1
SUN
  2
AcDbSun
  3
SCENEOE
 90
     1153
 91
        0
280
     0
281
     0
  0
CLASS
  1
ACDBSECTIONVIEWSTYLE
  2
AcDbSectionViewStyle
  3
ObjectDBX Classes
 90
     1025
 91
        1
280
     0
281
     0
  0
CLASS
  1
ACDBDETAILVIEWSTYLE
  2
AcDbDetailViewStyle
  3
ObjectDBX Classes
 90
     1025
 91
        1
280
     0
281
     0
  0
CLASS
  1
DICTIONARYVAR
  2
AcDbDictionaryVar
  3
ObjectDBX Classes
 90
        0
 91
        9
280
     0
281
     0
  0
CLASS
  1
CELLSTYLEMAP
  2
AcDbCellStyleMap
  3
ObjectDBX Classes
 90
     1152
 91
        3
280
     0
281
     0
  0
ENDSEC
  0
SECTION
  2
TABLES
  0
TABLE
  2
VPORT
  5
8
330
0
100
AcDbSymbolTable
 70
     1
  0
VPORT
  5
29
330
8
100
AcDbSymbolTableRecord
100
AcDbViewportTableRecord
  2
*Active
 70
     0
 10
0.0
 20
0.0
 11
1.0
 21
1.0
 12
385.4097864590949
 22
-88.49844815745473
 13
0.0
 23
0.0
 14
10.0
 24
10.0
 15
10.0
 25
10.0
 16
0.0
 26
0.0
 36
1.0
 17
0.0
 27
0.0
 37
0.0
 40
1046.190814165695
 41
2.066129032258064
 42
50.0
 43
0.0
 44
0.0
 50
0.0
 51
0.0
 71
     0
 72
   100
 73
     1
 74
     3
 75
     0
 76
     0
 77
     0
 78
     0
281
     0
 65
     1
110
0.0
120
0.0
130
0.0
111
1.0
121
0.0
131
0.0
112
0.0
122
1.0
132
0.0
 79
     0
146
0.0
348
A86
 60
     3
 61
     5
292
     1
282
     1
141
0.0
142
0.0
 63
   250
421
  3355443
1001
ACAD_NAV_VCDISPLAY
1070
     3
  0
ENDTAB
  0
TABLE
  2
LTYPE
  5
5
330
0
100
AcDbSymbolTable
 70
     6
  0
LTYPE
  5
14
330
5
100
AcDbSymbolTableRecord
100
AcDbLinetypeTableRecord
  2
ByBlock
 70
     0
  3

 72
    65
 73
     0
 40
0.0
  0
LTYPE
  5
15
330
5
100
AcDbSymbolTableRecord
100
AcDbLinetypeTableRecord
  2
ByLayer
 70
     0
  3

 72
    65
 73
     0
 40
0.0
  0
LTYPE
  5
16
330
5
100
AcDbSymbolTableRecord
100
AcDbLinetypeTableRecord
  2
Continuous
 70
     0
  3
Solid line
 72
    65
 73
     0
 40
0.0
  0
LTYPE
  5
6E
330
5
100
AcDbSymbolTableRecord
100
AcDbLinetypeTableRecord
  2
HIDDEN
 70
     0
  3
Hidden __ __ __ __ __ __ __ __ __ __ __ __ __ __
 72
    65
 73
     2
 40
1.905
 49
1.27
 74
     0
 49
-0.635
 74
     0
  0
LTYPE
  5
6F
330
5
100
AcDbSymbolTableRecord
100
AcDbLinetypeTableRecord
  2
PHANTOM
 70
     0
  3
Phantom ______  __  __  ______  __  __  ______
 72
    65
 73
     6
 40
12.7
 49
6.349999999999999
 74
     0
 49
-1.27
 74
     0
 49
1.27
 74
     0
 49
-1.27
 74
     0
 49
1.27
 74
     0
 49
-1.27
 74
     0
  0
LTYPE
  5
70
330
5
100
AcDbSymbolTableRecord
100
AcDbLinetypeTableRecord
  2
CENTER
 70
     0
  3
Center ____ _ ____ _ ____ _ ____ _ ____ _ ____
 72
    65
 73
     4
 40
10.16
 49
6.349999999999999
 74
     0
 49
-1.27
 74
     0
 49
1.27
 74
     0
 49
-1.27
 74
     0
  0
LTYPE
  5
71
330
5
100
AcDbSymbolTableRecord
100
AcDbLinetypeTableRecord
  2
CENTERX2
 70
     0
  3
Center (2x) ________  __  ________  __  _____
 72
    65
 73
     4
 40
20.32
 49
12.7
 74
     0
 49
-2.54
 74
     0
 49
2.54
 74
     0
 49
-2.54
 74
     0
  0
LTYPE
  5
72
330
5
100
AcDbSymbolTableRecord
100
AcDbLinetypeTableRecord
  2
DOT2
 70
     0
  3
Dot (.5x) ........................................
 72
    65
 73
     2
 40
0.635
 49
0.0
 74
     0
 49
-0.635
 74
     0
  0
ENDTAB
  0
TABLE
  2
LAYER
  5
2
102
{ACAD_XDICTIONARY
360
AE3
102
}
330
0
100
AcDbSymbolTable
 70
     1
  0
LAYER
  5
10
102
{ACAD_XDICTIONARY
360
ADE
102
}
330
2
100
AcDbSymbolTableRecord
100
AcDbLayerTableRecord
  2
0
 70
     0
 62
     7
  6
Continuous
370
    -3
390
F
347
A78
348
0
  0
ENDTAB
  0
TABLE
  2
STYLE
  5
3
330
0
100
AcDbSymbolTable
 70
     1
  0
STYLE
  5
11
330
3
100
AcDbSymbolTableRecord
100
AcDbTextStyleTableRecord
  2
Standard
 70
     0
 40
0.0
 41
1.0
 50
0.0
 71
     0
 42
3.5
  3
txt
  4

  0
ENDTAB
  0
TABLE
  2
VIEW
  5
6
330
0
100
AcDbSymbolTable
 70
     2
  0
ENDTAB
  0
TABLE
  2
UCS
  5
7
330
0
100
AcDbSymbolTable
 70
     0
  0
ENDTAB
  0
TABLE
  2
APPID
  5
9
330
0
100
AcDbSymbolTable
 70
     2
  0
APPID
  5
12
330
9
100
AcDbSymbolTableRecord
100
AcDbRegAppTableRecord
  2
ACAD
 70
     0
  0
APPID
  5
AD6
330
9
100
AcDbSymbolTableRecord
100
AcDbRegAppTableRecord
  2
ACAD_NAV_VCDISPLAY
 70
     0
  0
ENDTAB
  0
TABLE
  2
DIMSTYLE
  5
A
330
0
100
AcDbSymbolTable
 70
     1
100
AcDbDimStyleTable
 71
     0
  0
DIMSTYLE
105
27
330
A
100
AcDbSymbolTableRecord
100
AcDbDimStyleTableRecord
  2
ISO-25
 70
     0
 41
2.5
 42
0.625
 43
3.75
 44
1.25
 73
     0
 74
     0
 77
     1
 78
     8
140
2.5
141
2.5
143
0.0393700787
147
0.625
171
     3
172
     1
271
     2
272
     2
274
     3
278
    44
283
     0
284
     8
340
11
  0
ENDTAB
  0
TABLE
  2
BLOCK_RECORD
  5
1
330
0
100
AcDbSymbolTable
 70
     1
  0
BLOCK_RECORD
  5
1F
330
1
100
AcDbSymbolTableRecord
100
AcDbBlockTableRecord
  2
*Model_Space
340
22
 70
     0
280
     1
281
     0
  0
BLOCK_RECORD
  5
1B
330
1
100
AcDbSymbolTableRecord
100
AcDbBlockTableRecord
  2
*Paper_Space
340
1E
 70
     0
280
     1
281
     0
  0
BLOCK_RECORD
  5
23
330
1
100
AcDbSymbolTableRecord
100
AcDbBlockTableRecord
  2
*Paper_Space0
340
26
 70
     0
280
     1
281
     0
  0
ENDTAB
  0
ENDSEC
  0
SECTION
  2
BLOCKS
  0
BLOCK
  5
20
330
1F
100
AcDbEntity
  8
0
100
AcDbBlockBegin
  2
*Model_Space
 70
     0
 10
0.0
 20
0.0
 30
0.0
  3
*Model_Space
  1

  0
ENDBLK
  5
21
330
1F
100
AcDbEntity
  8
0
100
AcDbBlockEnd
  0
BLOCK
  5
1C
330
1B
100
AcDbEntity
 67
     1
  8
0
100
AcDbBlockBegin
  2
*Paper_Space
 70
     0
 10
0.0
 20
0.0
 30
0.0
  3
*Paper_Space
  1

  0
ENDBLK
  5
1D
330
1B
100
AcDbEntity
 67
     1
  8
0
100
AcDbBlockEnd
  0
BLOCK
  5
24
330
23
100
AcDbEntity
 67
     1
  8
0
100
AcDbBlockBegin
  2
*Paper_Space0
 70
     0
 10
0.0
 20
0.0
 30
0.0
  3
*Paper_Space0
  1

  0
ENDBLK
  5
25
330
23
100
AcDbEntity
 67
     1
  8
0
100
AcDbBlockEnd
  0
ENDSEC
  0
SECTION
  2
ENTITIES
  0
LWPOLYLINE
  5
AA6
330
1F
100
AcDbEntity
  8
0
  6
Continuous
 62
     7
370
    25
100
AcDbPolyline
 90
      146
 70
     1
 43
0.0
 10
-311.7150281284257
 20
-199.2710578726845
 10
-355.9670281284257
 20
-187.0810578726846
 10
-390.4947881284257
 20
-177.0391828726846
 10
-424.9273381284257
 20
-165.9285578726847
 10
-451.5494881284257
 20
-156.3629328726847
 10
-459.5206581284258
 20
-152.9762928726845
 10
-462.6460281284257
 20
-150.9560578726846
 10
-461.7907531284258
 20
-149.9155878726847
 10
-458.5117131284257
 20
-148.9923078726846
 10
-444.4710281284257
 20
-147.4560578726847
 10
-431.0939631284257
 20
-146.1279328726847
 10
-425.5060281284257
 20
-144.6310578726846
 10
-428.1447781284257
 20
-142.9948078726845
 10
-434.4240281284257
 20
-141.0210578726846
 10
-444.7905031284257
 20
-137.6463728726846
 10
-455.6330931284257
 20
-132.8223078726846
 10
-465.7771431284257
 20
-127.1301228726846
 10
-474.0480281284257
 20
-121.1510578726847
 10
-478.5212381284257
 20
-117.0312128726847
 10
-480.8777131284257
 20
-113.6735578726845
 10
-481.7948481284258
 20
-109.5959028726846
 10
-481.9500281284257
 20
-103.3160578726847
 10
-482.1616981284257
 20
-97.04449287268472
 10
-483.2200281284257
 20
-92.60480787268454
 10
-485.7599831284257
 20
-88.44074787268459
 10
-490.4165281284257
 20
-82.99605787268456
 10
-499.3489681284257
 20
-74.92543287268472
 10
-509.0430281284257
 20
-68.54605787268463
 10
-515.9029281284257
 20
-64.41199787268454
 10
-520.3179681284257
 20
-59.93855787268467
 10
-522.6797881284258
 20
-54.57636787268461
 10
-523.3800281284256
 20
-47.77605787268464
 10
-521.9547131284257
 20
-41.2004328726847
 10
-517.3970281284257
 20
-34.45605787268471
 10
-514.1355381284257
 20
-30.54136787268476
 10
-512.6414631284258
 20
-27.77980787268473
 10
-512.6503031284257
 20
-25.16636787268476
 10
-513.8975281284257
 20
-21.6960578726846
 10
-518.3618881284258
 20
-10.20894787268469
 10
-521.2492781284257
 20
-0.996682872684687
 10
-522.8031681284257
 20
6.924647127315211
 10
-523.2670281284257
 20
14.53894212731552
 10
-524.4100281284257
 20
25.36144212731529
 10
-528.0085281284256
 20
34.74394212731522
 10
-532.6365281284258
 20
43.43894212731538
 10
-525.6375281284257
 20
48.06894212731549
 10
-514.5273331284257
 20
52.97767212731537
 10
-495.3024681284257
 20
59.0412871273154
 10
-469.8176281284258
 20
65.83779212731542
 10
-439.9275281284257
 20
72.94519212731529
 10
-374.3503381284257
 20
86.40472212731538
 10
-342.3726631284258
 20
91.91286712731539
 10
-313.4085281284257
 20
96.04394212731541
 10
-254.8337131284258
 20
102.8170671273153
 10
-207.8580281284258
 20
106.2039421273155
 10
-172.8909031284257
 20
108.9426921273154
 10
-165.9800431284258
 20
110.6181621273153
 10
-161.4610281284257
 20
113.2039421273152
 10
-139.1660931284257
 20
132.5483171273154
 10
-96.89152812842577
 20
171.7939421273151
 10
-83.12769812842578
 20
183.6672221273154
 10
-69.83965312842577
 20
192.7889421273155
 10
-56.36129312842581
 20
199.5406621273152
 10
-42.02652812842575
 20
204.3039421273154
 10
-22.70988812842575
 20
207.9200471273152
 10
2.710346871574188
 20
210.6315221273155
 10
32.81339187157426
 20
212.4224871273152
 10
66.17847187157429
 20
213.2770671273154
 10
101.3848018715741
 20
213.1793821273152
 10
137.0115968715742
 20
212.1135521273156
 10
171.6380818715741
 20
210.0636971273152
 10
203.8434718715742
 20
207.0139421273154
 10
225.0667718715742
 20
203.8884821273155
 10
244.8520668715742
 20
199.5762071273152
 10
263.5393118715742
 20
193.9276421273152
 10
281.4684718715743
 20
186.7933171273153
 10
298.9795068715742
 20
178.0237571273153
 10
316.4123768715743
 20
167.4694871273152
 10
334.1070468715743
 20
154.9810421273152
 10
352.4034718715742
 20
140.4089421273154
 10
364.7767518715742
 20
130.5495671273154
 10
374.6722218715742
 20
124.4364421273153
 10
384.9483168715742
 20
120.6933171273153
 10
398.4634718715743
 20
117.9439421273152
 10
414.9676918715742
 20
114.4622221273152
 10
429.2397218715741
 20
110.2389421273153
 10
439.9773768715743
 20
105.7194121273153
 10
443.6138818715742
 20
103.4877121273155
 10
445.8784718715742
 20
101.3489421273152
 10
449.9366768715742
 20
93.69620712731535
 10
452.8628468715742
 20
83.1320671273154
 10
454.4980818715743
 20
70.47261212731541
 10
454.6834718715742
 20
56.53394212731541
 10
454.1360518715744
 20
46.88894212731542
 10
453.1015968715742
 20
39.7414421273154
 10
451.2205818715744
 20
33.48269212731521
 10
448.1334718715743
 20
26.50394212731533
 10
440.8522218715741
 20
14.31331712731537
 10
431.5384718715741
 20
2.118942127315449
 10
421.9810518715742
 20
-9.515587872684591
 10
415.6078468715743
 20
-19.59480787268467
 10
411.3299568715742
 20
-30.24590287268461
 10
408.0584718715742
 20
-43.59605787268458
 10
404.5818318715742
 20
-58.12504287268462
 10
400.3115968715742
 20
-69.64793287268458
 10
394.8348018715742
 20
-79.09613787268461
 10
387.7384718715743
 20
-87.40105787268475
 10
381.2183468715742
 20
-93.22234787268461
 10
374.4162068715743
 20
-97.82699787268462
 10
367.2937918715743
 20
-101.2255478726846
 10
359.8128468715742
 20
-103.4285578726847
 10
351.9351018715743
 20
-104.4465678726847
 10
343.6223018715741
 20
-104.2901228726846
 10
334.8361768715743
 20
-102.9697678726845
 10
325.5384718715742
 20
-100.4960578726845
 10
312.2465968715742
 20
-97.0085578726846
 10
303.8634718715741
 20
-96.65605787268464
 10
229.2434718715743
 20
-112.8010578726847
 10
190.6384718715742
 20
-121.2660578726846
 10
137.0134718715742
 20
-132.5560578726846
 10
58.8984718715742
 20
-148.5860578726845
 10
18.14347187157421
 20
-157.0510578726847
 10
11.62409687157424
 20
-161.8348078726845
 10
0.5334718715743066
 20
-171.9510578726847
 10
-8.908928128425714
 20
-180.3019278726847
 10
-18.97980812842581
 20
-187.6380128726846
 10
-29.5984231284258
 20
-193.9288978726847
 10
-40.68402812842577
 20
-199.1441828726847
 10
-52.15588312842567
 20
-203.2534528726846
 10
-63.9332481284257
 20
-206.2262928726846
 10
-75.93537812842567
 20
-208.0322978726846
 10
-88.08152812842582
 20
-208.6410578726847
 10
-102.1091781284257
 20
-207.9239478726847
 10
-115.3742181284257
 20
-205.8741828726845
 10
-128.3425381284257
 20
-202.3853528726847
 10
-141.4800281284257
 20
-197.3510578726846
 10
-152.5800531284258
 20
-193.3678528726846
 10
-162.5477131284257
 20
-191.9041828726847
 10
-172.4519131284257
 20
-192.9389478726846
 10
-183.3615281284258
 20
-196.4510578726846
 10
-198.6260181284257
 20
-202.0191028726847
 10
-213.4460881284257
 20
-205.9591828726847
 10
-228.6048781284257
 20
-208.4189478726846
 10
-244.8855281284257
 20
-209.5460578726845
 10
-262.7075931284257
 20
-209.6573078726847
 10
-275.0265281284257
 20
-208.7560578726847
  0
LWPOLYLINE
  5
AA7
330
1F
100
AcDbEntity
  8
0
  6
Continuous
 62
     7
370
    25
100
AcDbPolyline
 90
       24
 70
     1
 43
0.0
 10
-55.41945812842573
 20
-164.6380478726846
 10
-54.85559312842565
 20
-158.1273078726846
 10
-55.86344312842584
 20
-151.8125028726846
 10
-58.28152812842574
 20
-145.9873078726846
 10
-61.94836312842574
 20
-140.9453928726845
 10
-66.70246312842585
 20
-136.9804328726846
 10
-72.38234812842574
 20
-134.3860978726846
 10
-78.82652812842571
 20
-133.4560578726846
 10
-83.07922312842572
 20
-134.2185578726846
 10
-87.44840312842574
 20
-136.3751228726846
 10
-91.66945812842573
 20
-139.6055878726846
 10
-95.47777812842577
 20
-143.5898078726845
 10
-98.60875312842575
 20
-148.0076178726847
 10
-100.7977781284257
 20
-152.5388728726845
 10
-101.7802381284257
 20
-156.8634028726845
 10
-101.2915281284257
 20
-160.6610578726846
 10
-98.3580931284257
 20
-163.7238678726847
 10
-92.30277812842576
 20
-167.2948078726847
 10
-84.19434312842577
 20
-170.8226178726847
 10
-75.1015281284258
 20
-173.7560578726846
 10
-67.08285812842564
 20
-175.7472278726847
 10
-62.51465312842583
 20
-176.1291828726846
 10
-59.89363812842566
 20
-174.6483228726846
 10
-57.71652812842569
 20
-171.0510578726846
  0
LWPOLYLINE
  5
AA8
330
1F
100
AcDbEntity
  8
0
  6
Continuous
 62
     7
370
    25
100
AcDbPolyline
 90
       21
 70
     1
 43
0.0
 10
-16.25121312842577
 20
-157.1555878726847
 10
-10.4452781284258
 20
-150.8135578726845
 10
-7.221218128425675
 20
-144.7677778726845
 10
-6.682858128425664
 20
-141.9881078726846
 10
-6.916528128425738
 20
-139.4410578726846
 10
-9.520513128425704
 20
-133.3100428726847
 10
-13.77590312842574
 20
-128.4066828726846
 10
-19.1741081284257
 20
-125.1542628726846
 10
-25.20652812842582
 20
-123.9760578726847
 10
-31.86614812842572
 20
-124.9301578726845
 10
-37.52691812842579
 20
-127.5879328726846
 10
-42.04733812842573
 20
-131.6425828726846
 10
-45.28590312842573
 20
-136.7873078726845
 10
-47.10110812842572
 20
-142.7153178726846
 10
-47.35144812842577
 20
-149.1198078726847
 10
-45.89542312842581
 20
-155.6939878726846
 10
-42.59152812842569
 20
-162.1310578726846
 10
-38.51215312842578
 20
-167.0710578726846
 10
-35.36652812842567
 20
-169.1310578726845
 10
-31.10340312842573
 20
-167.4360578726846
 10
-24.30152812842573
 20
-163.3710578726846
  0
LWPOLYLINE
  5
AA9
330
1F
100
AcDbEntity
  8
0
  6
Continuous
 62
     7
370
    25
100
AcDbPolyline
 90
       88
 70
     1
 43
0.0
 10
-250.0783381284258
 20
-159.8173078726847
 10
-236.5315281284258
 20
-150.1660578726846
 10
-221.4892781284257
 20
-139.4410578726846
 10
-215.7356231284257
 20
-136.7982478726845
 10
-209.6645281284258
 20
-135.1510578726847
 10
-188.7236531284258
 20
-130.0854328726845
 10
-182.9310131284257
 20
-127.5467628726846
 10
-177.6040281284257
 20
-124.0860578726844
 10
-171.0741431284257
 20
-118.3697278726847
 10
-164.8194631284257
 20
-110.6954328726847
 10
-158.2684431284257
 20
-100.2901978726846
 10
-150.8495281284257
 20
-86.38105787268466
 10
-143.4004281284258
 20
-72.5247678726846
 10
-134.9644881284257
 20
-58.79668287268464
 10
-125.8353031284258
 20
-45.55797287268467
 10
-116.3064631284257
 20
-33.1698078726846
 10
-106.6715731284257
 20
-21.99336287268477
 10
-97.22422312842576
 20
-12.38980787268474
 10
-88.25800812842578
 20
-4.720317872684745
 10
-80.06652812842572
 20
0.6539421273154176
 10
-69.22723312842572
 20
5.38159712731533
 10
-57.18090312842583
 20
8.838942127315362
 10
-45.42988812842577
 20
10.68753712731529
 10
-35.47652812842569
 20
10.58894212731536
 10
-23.34453812842571
 20
7.974702127315367
 10
-11.9449631284258
 20
3.455347127315462
 10
-1.439303128425763
 20
-2.810332872684625
 10
8.01097187157427
 20
-10.66355787268458
 10
16.24437187157423
 20
-19.94553287268468
 10
23.09941187157415
 20
-30.49746287268476
 10
28.41460687157428
 20
-42.16056787268462
 10
32.02847187157431
 20
-54.77605787268465
 10
34.51347187157421
 20
-63.32480787268457
 10
35.93503187157433
 20
-65.09230787268461
 10
37.67347187157418
 20
-65.61105787268457
 10
39.14957687157414
 20
-65.29300287268461
 10
40.19167687157426
 20
-64.29379287268466
 10
40.97409687157425
 20
-59.98168287268459
 10
40.02120687157423
 20
-52.13426287268453
 10
37.33347187157426
 20
-40.21105787268459
 10
33.61738687157424
 20
-28.35137787268457
 10
28.87761187157435
 20
-17.80801287268457
 10
23.0743618715743
 20
-8.542572872684559
 10
16.16784687157428
 20
-0.5166828726846689
 10
8.118286871574241
 20
6.3080321273153
 10
-1.114108128425755
 20
11.96995712731541
 10
-11.56911812842577
 20
16.50746712731541
 10
-23.28652812842574
 20
19.95894212731537
 10
-33.67301312842574
 20
21.92769212731537
 10
-42.80090312842571
 20
22.58394212731537
 10
-51.65410812842572
 20
21.92769212731537
 10
-61.21652812842569
 20
19.95894212731537
 10
-75.35898812842572
 20
15.34727212731536
 10
-88.2075681284258
 20
8.950897127315329
 10
-100.2252981284257
 20
0.2446371273154
 10
-111.8752131284258
 20
-11.29668287268464
 10
-123.6203631284257
 20
-26.19823787268467
 10
-135.9237681284257
 20
-44.98519787268469
 10
-149.2484781284257
 20
-68.18274787268456
 10
-164.0575281284257
 20
-96.31605787268462
 10
-169.2592881284258
 20
-105.1269178726845
 10
-175.1064631284257
 20
-112.7841828726846
 10
-181.1864281284257
 20
-118.8111378726845
 10
-187.0865281284258
 20
-122.7310578726845
 10
-200.2240281284258
 20
-126.1885578726847
 10
-223.0980281284258
 20
-130.4110578726845
 10
-253.9165281284257
 20
-136.1660578726846
 10
-251.5317131284257
 20
-136.8854328726846
 10
-244.3210281284257
 20
-137.1810578726846
 10
-236.7573381284258
 20
-137.6479328726847
 10
-233.5965281284257
 20
-138.8760578726848
 10
-235.8066381284257
 20
-142.1851178726846
 10
-241.2022781284258
 20
-147.0598078726847
 10
-247.9314181284258
 20
-152.0188728726846
 10
-254.1420281284258
 20
-155.5810578726847
 10
-261.3845181284258
 20
-157.5175428726846
 10
-272.7122181284258
 20
-158.2779328726845
 10
-290.5591931284257
 20
-157.9161378726845
 10
-317.3595281284257
 20
-156.4860578726845
 10
-340.3744681284258
 20
-155.4698078726846
 10
-350.7740281284258
 20
-155.8110578726845
 10
-345.7507131284258
 20
-157.4041828726846
 10
-331.9220281284257
 20
-159.4210578726845
 10
-301.3295281284257
 20
-164.3910578726846
 10
-290.6807931284258
 20
-166.2262128726846
 10
-279.2172781284258
 20
-166.9710578726847
 10
-268.4523881284258
 20
-166.5946528726845
 10
-259.8995281284258
 20
-165.0660578726846
  0
LWPOLYLINE
  5
AAA
330
1F
100
AcDbEntity
  8
0
  6
Continuous
 62
     7
370
    25
100
AcDbPolyline
 90
       24
 70
     1
 43
0.0
 10
-95.3191081284258
 20
-130.4349628726846
 10
-91.10340312842572
 20
-124.5810578726846
 10
-88.03051312842569
 20
-117.9434028726846
 10
-86.84152812842569
 20
-111.7810578726846
 10
-87.65488812842567
 20
-105.9053528726847
 10
-89.87590312842575
 20
-100.0704328726847
 10
-93.1759831284258
 20
-94.95457287268459
 10
-97.2265281284258
 20
-91.23605787268457
 10
-101.3244681284257
 20
-89.16579287268451
 10
-105.6445381284257
 20
-88.09144787268463
 10
-110.0385831284258
 20
-87.97206287268455
 10
-114.3584631284257
 20
-88.76668287268467
 10
-118.4560431284258
 20
-90.43434787268461
 10
-122.1831781284257
 20
-92.93410287268466
 10
-125.3917181284257
 20
-96.22499287268476
 10
-127.9335281284257
 20
-100.2660578726847
 10
-129.1169981284257
 20
-106.1485578726846
 10
-128.5966531284257
 20
-114.0410578726847
 10
-126.6158731284257
 20
-122.2710578726846
 10
-123.4180281284257
 20
-129.1660578726847
 10
-118.8918631284257
 20
-133.9134778726846
 10
-113.2014631284257
 20
-136.4066828726846
 10
-106.7489731284257
 20
-136.5495728726846
 10
-99.93652812842578
 20
-134.2460578726845
  0
LWPOLYLINE
  5
AAB
330
1F
100
AcDbEntity
  8
0
  6
Continuous
 62
     7
370
    25
100
AcDbPolyline
 90
       14
 70
     1
 43
0.0
 10
-247.7235431284257
 20
-122.9058228726847
 10
-248.3990281284258
 20
-120.3054328726846
 10
-251.5510131284258
 20
-116.5191028726847
 10
-257.8675281284258
 20
-110.4260578726846
 10
-266.5315281284258
 20
-102.7085578726846
 10
-270.9625281284257
 20
-99.4760578726847
 10
-276.0425281284258
 20
-102.1860578726845
 10
-278.5823431284258
 20
-105.0648078726847
 10
-277.7355281284258
 20
-108.2810578726846
 10
-273.1673081284258
 20
-113.0919928726846
 10
-265.0641531284258
 20
-120.2635578726847
 10
-257.0031831284258
 20
-126.7788728726846
 10
-252.5615281284257
 20
-129.6210578726846
 10
-248.8365281284257
 20
-125.4410578726847
  0
LWPOLYLINE
  5
AAC
330
1F
100
AcDbEntity
  8
0
  6
Continuous
 62
     7
370
    25
100
AcDbPolyline
 90
       16
 70
     1
 43
0.0
 10
-48.14949812842576
 20
-116.5746328726847
 10
-47.61996812842574
 20
-110.1246528726847
 10
-48.46027812842567
 20
-96.68480787268459
 10
-51.58621812842568
 20
-84.21808787268469
 10
-53.91371312842579
 20
-78.98451287268471
 10
-56.7015281284257
 20
-74.75605787268455
 10
-60.31152812842583
 20
-70.35105787268469
 10
-63.47652812842579
 20
-77.80605787268462
 10
-65.86590312842577
 20
-87.76105787268454
 10
-66.00152812842577
 20
-99.29480787268472
 10
-63.99965312842573
 20
-110.8079328726845
 10
-59.9765281284258
 20
-120.7010578726847
 10
-55.75652812842577
 20
-126.9816828726847
 10
-52.97652812842568
 20
-129.6210578726846
 10
-51.21215312842571
 20
-127.5448078726846
 10
-49.36152812842578
 20
-122.5060578726846
  0
LWPOLYLINE
  5
AAD
330
1F
100
AcDbEntity
  8
0
  6
Continuous
 62
     7
370
    25
100
AcDbPolyline
 90
       21
 70
     1
 43
0.0
 10
-391.1652381284257
 20
-119.7323078726846
 10
-392.7827181284257
 20
-118.9360578726845
 10
-398.8645281284257
 20
-117.6510578726847
 10
-405.2763681284258
 20
-116.3199928726847
 10
-411.7424681284258
 20
-114.0666028726847
 10
-418.1583131284257
 20
-110.9637228726847
 10
-424.4194031284257
 20
-107.0841828726846
 10
-436.0592781284257
 20
-97.28644787268457
 10
-441.2290481284257
 20
-91.5139178726846
 10
-445.8260281284257
 20
-85.25605787268466
 10
-447.6745281284258
 20
-83.12355787268462
 10
-447.0675281284257
 20
-87.17105787268463
 10
-444.4147781284256
 20
-93.64191787268465
 10
-439.4760281284257
 20
-101.5091828726846
 10
-433.7329031284257
 20
-108.6986378726846
 10
-428.6670281284258
 20
-113.1360578726845
 10
-417.3922881284258
 20
-118.2042628726845
 10
-405.6942181284257
 20
-121.4204328726846
 10
-396.0281781284257
 20
-122.3294178726846
 10
-392.7244681284258
 20
-121.7764778726846
 10
-390.8495281284258
 20
-120.4760578726848
  0
LWPOLYLINE
  5
AAE
330
1F
100
AcDbEntity
  8
0
  6
Continuous
 62
     7
370
    25
100
AcDbPolyline
 90
       42
 70
     1
 43
0.0
 10
286.5934718715743
 20
-64.71105787268448
 10
308.6034718715743
 20
-59.9660578726847
 10
313.0139418715742
 20
-57.47355787268475
 10
319.3284718715741
 20
-51.28730787268455
 10
325.8117518715743
 20
-43.34418287268476
 10
330.7284718715741
 20
-35.58105787268471
 10
335.2356568715743
 20
-25.07051287268462
 10
340.1984718715743
 20
-11.25668287268468
 10
344.2087818715743
 20
1.62620712731541
 10
345.8584718715743
 20
9.343942127315358
 10
344.9690968715742
 20
10.88269212731541
 10
342.8084718715743
 20
11.1539421273153
 10
341.1222218715742
 20
9.692847127315417
 10
338.9709718715742
 20
5.903942127315417
 10
333.4384718715743
 20
-8.151057872684759
 10
327.4806618715743
 20
-23.89832287268473
 10
321.8397218715743
 20
-35.15918287268471
 10
315.8181568715744
 20
-43.07597787268469
 10
308.7184718715743
 20
-48.79105787268463
 10
300.2858168715742
 20
-53.36566787268464
 10
287.9897218715743
 20
-57.45418287268456
 10
266.1892518715742
 20
-62.6011378726846
 10
229.2434718715743
 20
-70.35105787268469
 10
119.1784718715743
 20
-93.15605787268465
 10
53.13847187157421
 20
-106.3660578726846
 10
45.34847187157424
 20
-107.4910578726846
 10
44.21847187157413
 20
-97.3310578726846
 10
42.97847187157424
 20
-80.17605787268474
 10
42.25909687157434
 20
-74.64355787268471
 10
41.21714187157431
 20
-73.50762287268458
 10
39.59347187157425
 20
-73.17605787268473
 10
37.88995687157433
 20
-73.77933787268466
 10
36.89659687157428
 20
-76.3935578726846
 10
36.31847187157428
 20
-92.48105787268469
 10
35.8822218715743
 20
-107.5923078726846
 10
34.85347187157425
 20
-116.8610578726845
 10
34.04480187157424
 20
-120.3131678726846
 10
34.18541687157426
 20
-121.2447778726846
 10
34.92034687157423
 20
-121.6891828726845
 10
38.86620687157427
 20
-121.2436378726845
 10
47.2684718715742
 20
-119.2310578726847
 10
117.2584718715743
 20
-103.2010578726847
  0
LWPOLYLINE
  5
AAF
330
1F
100
AcDbEntity
  8
0
  6
Continuous
 62
     7
370
    25
100
AcDbPolyline
 90
       22
 70
     1
 43
0.0
 10
-347.3877131284258
 20
-100.7204328726847
 10
-347.4793931284257
 20
-98.81488787268461
 10
-346.5975281284258
 20
-97.67105787268452
 10
-339.6266531284258
 20
-96.27480787268462
 10
-326.0520281284258
 20
-94.9610578726846
 10
-308.8170131284257
 20
-93.39386787268471
 10
-301.7102781284258
 20
-91.89980787268462
 10
-302.0641481284258
 20
-91.25636787268467
 10
-305.0810431284258
 20
-90.72262287268449
 10
-319.2785281284258
 20
-90.10605787268469
 10
-345.5815281284257
 20
-89.09105787268471
 10
-349.7864831284257
 20
-88.81629287268458
 10
-354.4149031284257
 20
-89.34543287268457
 10
-358.1543881284257
 20
-90.42488787268462
 10
-359.6925281284257
 20
-91.80105787268463
 10
-357.2724731284258
 20
-97.1229328726846
 10
-351.7620931284258
 20
-105.4185578726847
 10
-345.7860531284258
 20
-113.0579328726846
 10
-341.9690281284257
 20
-116.4110578726845
 10
-340.9230381284257
 20
-115.9915278726846
 10
-340.8824681284257
 20
-114.5773078726847
 10
-344.1140281284257
 20
-107.8310578726846
  0
LWPOLYLINE
  5
AB0
330
1F
100
AcDbEntity
  8
0
  6
Continuous
 62
     7
370
    25
100
AcDbPolyline
 90
       26
 70
     1
 43
0.0
 10
5.795241871574262
 20
-106.2294978726846
 10
6.890426871574277
 20
-101.3851178726846
 10
6.952846871574251
 20
-88.7273078726846
 10
4.539331871574177
 20
-76.02636787268477
 10
2.539596871574303
 20
-71.12808787268477
 10
0.0834718715743748
 20
-67.98105787268468
 10
-3.406763128425723
 20
-66.33363787268456
 10
-7.76465312842572
 20
-65.80793287268455
 10
-12.46098312842571
 20
-66.42504287268457
 10
-16.96652812842569
 20
-68.20605787268471
 10
-20.92617812842582
 20
-71.14810787268459
 10
-24.1327781284258
 20
-75.05683787268458
 10
-26.53219312842578
 20
-79.67174287268472
 10
-28.0702781284258
 20
-84.73230787268461
 10
-28.6928931284258
 20
-89.97803287268459
 10
-28.34590312842579
 20
-95.14840287268464
 10
-26.97516312842572
 20
-99.98291287268466
 10
-24.52652812842575
 20
-104.2210578726846
 10
-21.39643812842576
 20
-107.5126378726846
 10
-17.92269812842573
 20
-110.0927778726846
 10
-14.2163431284257
 20
-111.9376778726846
 10
-10.3884031284258
 20
-113.0235578726846
 10
-6.549918128425815
 20
-113.3266228726845
 10
-2.811918128425759
 20
-112.8230878726847
 10
0.7145568715742457
 20
-111.4891628726845
 10
3.918471871574183
 20
-109.3010578726846
  0
LWPOLYLINE
  5
AB1
330
1F
100
AcDbEntity
  8
0
  6
Continuous
 62
     7
370
    25
100
AcDbPolyline
 90
       38
 70
     1
 43
0.0
 10
-221.5175881284257
 20
-78.22605787268469
 10
-173.8790281284257
 20
-73.85105787268469
 10
-166.3858431284258
 20
-72.45543287268469
 10
-164.6237231284257
 20
-71.42316787268464
 10
-164.0575281284257
 20
-70.12605787268478
 10
-164.4429381284257
 20
-68.24197787268463
 10
-165.6168031284257
 20
-66.73465287268459
 10
-170.4357181284257
 20
-64.83480787268468
 10
-178.7259131284257
 20
-64.39558787268459
 10
-190.6990281284257
 20
-65.38605787268465
 10
-232.1342631284257
 20
-69.19472787268467
 10
-277.3265281284257
 20
-71.21418287268466
 10
-321.1429181284258
 20
-71.30707287268456
 10
-358.4505281284257
 20
-69.33605787268459
 10
-393.9785131284257
 20
-65.15449287268473
 10
-433.6340281284257
 20
-59.16355787268469
 10
-468.7175431284257
 20
-52.81262287268453
 10
-490.5295281284257
 20
-47.55105787268473
 10
-494.3535931284257
 20
-45.97621287268464
 10
-497.0770281284258
 20
-44.10605787268457
 10
-499.0384681284257
 20
-41.64340287268465
 10
-500.5765281284257
 20
-38.29105787268463
 10
-502.7497781284258
 20
-33.66480787268461
 10
-504.7535281284257
 20
-31.74605787268456
 10
-507.9848381284257
 20
-33.59355787268464
 10
-513.3330281284258
 20
-38.06605787268461
 10
-520.2190281284257
 20
-44.27605787268475
 10
-513.7845281284257
 20
-49.13105787268455
 10
-509.7650381284258
 20
-51.36878287268473
 10
-503.5412581284257
 20
-53.77917287268473
 10
-485.4531431284256
 20
-58.95129287268469
 10
-461.4648631284257
 20
-64.31407787268461
 10
-433.5210931284257
 20
-69.53418287268471
 10
-403.5664981284257
 20
-74.27827287268462
 10
-373.5457531284258
 20
-78.21301287268465
 10
-345.4035431284258
 20
-81.0050528726847
 10
-321.0845281284258
 20
-82.3210578726846
 10
-267.4630281284257
 20
-80.74105787268468
  0
LWPOLYLINE
  5
AB2
330
1F
100
AcDbEntity
  8
0
  6
Continuous
 62
     7
370
    25
100
AcDbPolyline
 90
       23
 70
     1
 43
0.0
 10
-82.18404812842583
 20
-70.7557278726847
 10
-78.73699812842573
 20
-66.40527787268457
 10
-76.31908812842585
 20
-61.21365787268473
 10
-74.97402812842574
 20
-55.47980787268466
 10
-74.74553312842579
 20
-49.50267787268467
 10
-75.6773081284258
 20
-43.58121287268466
 10
-77.8130731284258
 20
-38.01435787268474
 10
-81.19652812842572
 20
-33.10105787268481
 10
-86.39152812842565
 20
-27.3410578726847
 10
-94.74652812842572
 20
-32.31105787268461
 10
-101.4673931284257
 20
-37.04183787268471
 10
-108.3899681284257
 20
-43.23230787268471
 10
-114.4450681284257
 20
-49.8034028726845
 10
-118.5635281284257
 20
-55.67605787268473
 10
-119.2078881284257
 20
-58.63085287268472
 10
-118.4261381284257
 20
-61.99410287268472
 10
-116.4643331284258
 20
-65.51848787268466
 10
-113.5685281284258
 20
-68.95668287268461
 10
-105.9591681284257
 20
-74.5851978726846
 10
-101.7377281284257
 20
-76.28087287268465
 10
-97.56652812842572
 20
-76.90105787268476
 10
-92.21902812842575
 20
-76.02605787268465
 10
-86.61652812842566
 20
-73.96605787268459
  0
LWPOLYLINE
  5
AB3
330
1F
100
AcDbEntity
  8
0
  6
Continuous
 62
     7
370
    25
100
AcDbPolyline
 90
       27
 70
     1
 43
0.0
 10
244.1434718715743
 20
-49.35605787268468
 10
251.5115968715743
 20
-47.63293287268459
 10
254.9834718715743
 20
-45.74105787268467
 10
254.5564318715742
 20
-45.00534287268476
 10
252.5205818715742
 20
-44.67410287268466
 10
242.6490968715742
 20
-45.32043287268459
 10
192.8934718715742
 20
-52.51605787268466
 10
168.3588618715741
 20
-56.29051287268464
 10
154.8515968715742
 20
-57.73668287268458
 10
148.2865168715742
 20
-57.02379287268468
 10
144.5784718715742
 20
-54.32105787268461
 10
142.5504268715742
 20
-51.65621287268471
 10
141.3890968715743
 20
-47.4660578726847
 10
140.7384718715741
 20
-27.90605787268464
 10
140.2185518715741
 20
-10.42941787268466
 10
138.8628468715742
 20
5.23831712731544
 10
136.9774568715743
 20
16.52511212731542
 10
135.9317818715742
 20
19.72190212731539
 10
134.8684718715742
 20
20.85894212731535
 10
133.7272218715743
 20
15.76456712731533
 10
133.1784718715743
 20
3.473942127315353
 10
131.3684718715742
 20
-40.89105787268477
 10
130.3809718715742
 20
-60.49043287268466
 10
130.5784718715742
 20
-69.67605787268474
 10
132.2584718715743
 20
-70.67793287268466
 10
134.8684718715742
 20
-70.58105787268471
 10
185.8934718715742
 20
-60.30605787268462
  0
LWPOLYLINE
  5
AB4
330
1F
100
AcDbEntity
  8
0
  6
Continuous
 62
     7
370
    25
100
AcDbPolyline
 90
       21
 70
     1
 43
0.0
 10
-22.04340312842578
 20
-53.37668287268468
 10
-18.99652812842578
 20
-47.43605787268461
 10
-17.87137312842572
 20
-43.45152787268455
 10
-17.95277812842573
 20
-40.7898078726846
 10
-19.59980812842571
 20
-38.40371287268465
 10
-23.17152812842573
 20
-35.24605787268467
 10
-29.48309312842571
 20
-31.05879287268454
 10
-36.83152812842582
 20
-27.58168287268472
 10
-43.58746812842571
 20
-25.48176287268461
 10
-48.12152812842566
 20
-25.42605787268462
 10
-49.99996812842574
 20
-26.82340287268471
 10
-51.97402812842574
 20
-29.50230787268458
 10
-55.57152812842571
 20
-37.72605787268469
 10
-55.83512312842572
 20
-42.57027787268464
 10
-54.3727781284258
 20
-48.35480787268465
 10
-51.61855812842578
 20
-53.90496287268468
 10
-48.00652812842577
 20
-58.04605787268463
 10
-42.84019812842575
 20
-60.77699787268454
 10
-37.05840312842577
 20
-61.68730787268464
 10
-31.27566812842577
 20
-60.77699787268454
 10
-26.10652812842579
 20
-58.04605787268463
  0
LWPOLYLINE
  5
AB5
330
1F
100
AcDbEntity
  8
0
  6
Continuous
 62
     7
370
    25
100
AcDbPolyline
 90
       30
 70
     1
 43
0.0
 10
-269.3820281284258
 20
-50.03105787268464
 10
-269.3820281284258
 20
-36.26105787268455
 10
-269.9181531284258
 20
-26.1854328726846
 10
-270.5248881284258
 20
-23.37066787268463
 10
-271.3010281284257
 20
-22.37605787268467
 10
-279.7675281284258
 20
-25.08605787268459
 10
-286.3150281284258
 20
-27.79605787268463
 10
-285.1865281284257
 20
-18.08605787268459
 10
-285.0452781284257
 20
-9.097307872684723
 10
-286.1071981284258
 20
-6.100587872684627
 10
-288.1215281284257
 20
-3.071057872684605
 10
-291.4638631284258
 20
0.5575871273154008
 10
-295.4927631284257
 20
3.780582127315369
 10
-306.1976531284258
 20
9.247067127315403
 10
-321.4109831284257
 20
13.80323712731547
 10
-342.3075281284257
 20
17.92394212731528
 10
-347.2605281284258
 20
18.08081712731541
 10
-348.1654031284258
 20
17.18073712731541
 10
-348.4035281284258
 20
15.44394212731538
 10
-347.3926031284258
 20
10.52027212731536
 10
-344.6764481284258
 20
2.627067127315285
 10
-336.0281531284257
 20
-17.90355787268459
 10
-326.2580431284257
 20
-37.81918287268468
 10
-322.1396231284257
 20
-44.94363787268457
 10
-319.1655281284258
 20
-48.79105787268463
 10
-314.7206131284258
 20
-50.82933787268462
 10
-307.9050931284257
 20
-52.47480787268466
 10
-300.6239131284258
 20
-53.37965287268457
 10
-294.7820281284257
 20
-53.19605787268461
 10
-280.2190281284257
 20
-51.27605787268476
  0
LWPOLYLINE
  5
AB6
330
1F
100
AcDbEntity
  8
0
  6
Continuous
 62
     7
370
    25
100
AcDbPolyline
 90
       26
 70
     1
 43
0.0
 10
-385.3268781284257
 20
-49.14597787268474
 10
-394.2502131284257
 20
-47.66168287268465
 10
-424.4900281284257
 20
-45.18105787268462
 10
-443.2560131284256
 20
-43.32332287268468
 10
-450.2332781284257
 20
-41.86046287268459
 10
-455.9154031284257
 20
-39.90043287268463
 10
-460.5338831284258
 20
-37.33735787268461
 10
-464.3202331284257
 20
-34.06535287268457
 10
-467.5059431284258
 20
-29.97854787268466
 10
-470.3225281284257
 20
-24.97105787268458
 10
-474.0672131284257
 20
-18.11301287268452
 10
-476.5736531284257
 20
-15.06543287268459
 10
-477.1607881284257
 20
-15.08966287268458
 10
-477.1962781284257
 20
-16.20941787268452
 10
-475.2895281284257
 20
-21.92605787268474
 10
-471.2574131284257
 20
-30.17035287268459
 10
-466.5690881284257
 20
-37.00793287268459
 10
-461.4151131284257
 20
-42.25832287268462
 10
-455.9860281284257
 20
-45.74105787268467
 10
-449.7170931284257
 20
-47.35776787268457
 10
-439.1514031284257
 20
-48.91629287268461
 10
-411.9030281284257
 20
-51.41418287268459
 10
-387.7874031284258
 20
-52.34551287268459
 10
-381.1376531284258
 20
-51.94583287268461
 10
-379.9056181284258
 20
-51.48102787268465
 10
-380.3510281284257
 20
-50.8210578726846
  0
LWPOLYLINE
  5
AB7
330
1F
100
AcDbEntity
  8
0
  6
Continuous
 62
     7
370
    25
100
AcDbPolyline
 90
       49
 70
     1
 43
0.0
 10
-230.5095831284258
 20
-42.07887287268454
 10
-230.0968381284258
 20
-39.66105787268452
 10
-232.3088181284257
 20
-38.95699787268461
 10
-237.2090281284258
 20
-39.87105787268456
 10
-242.9732631284257
 20
-40.74972787268473
 10
-247.3405281284257
 20
-39.52043287268464
 10
-250.9881681284258
 20
-35.72894787268456
 10
-254.5935281284258
 20
-28.92105787268452
 10
-257.1284031284258
 20
-22.49246287268466
 10
-258.1074031284257
 20
-17.95855787268465
 10
-257.4988381284257
 20
-15.85840287268456
 10
-255.2710281284257
 20
-16.73105787268468
 10
-253.2673431284258
 20
-19.04418287268459
 10
-252.4490281284258
 20
-21.36105787268457
 10
-251.1084681284258
 20
-24.52043287268464
 10
-247.8205281284257
 20
-28.69605787268461
 10
-245.2046281284257
 20
-31.13902787268467
 10
-242.4723381284258
 20
-32.66230787268467
 10
-234.8385281284257
 20
-33.66605787268464
 10
-230.0212531284258
 20
-33.53871287268475
 10
-227.3735881284257
 20
-32.73355787268463
 10
-226.0595181284257
 20
-30.61590287268473
 10
-225.2430281284258
 20
-26.55105787268474
 10
-224.9342681284257
 20
-18.38129287268464
 10
-226.2447131284258
 20
-8.941682872684623
 10
-228.9733181284257
 20
0.751987127315374
 10
-232.9190281284257
 20
9.683942127315276
 10
-239.1031931284258
 20
19.74464712731537
 10
-244.5465881284258
 20
25.13706712731539
 10
-247.1955381284258
 20
26.21172712731539
 10
-249.9053331284258
 20
26.2741771273154
 10
-252.7579931284258
 20
25.37604212731526
 10
-255.8355281284258
 20
23.56894212731538
 10
-259.5139131284258
 20
20.17502712731539
 10
-262.4871781284258
 20
15.76667712731546
 10
-264.7275381284257
 20
10.49336712731542
 10
-266.2072131284258
 20
4.504567127315453
 10
-266.8984331284258
 20
-2.050247872684622
 10
-266.7734131284257
 20
-9.021602872684638
 10
-265.8043681284258
 20
-16.26003287268452
 10
-263.9635281284258
 20
-23.61605787268468
 10
-260.8750281284258
 20
-32.57160287268471
 10
-257.7970281284257
 20
-38.78543287268462
 10
-254.1051531284258
 20
-43.28457287268475
 10
-249.1750281284257
 20
-47.09605787268469
 10
-244.4214831284258
 20
-49.65644787268468
 10
-240.3557781284257
 20
-50.38543287268464
 10
-236.7768231284257
 20
-49.27222787268465
 10
-233.4835281284258
 20
-46.30605787268462
  0
LWPOLYLINE
  5
AB8
330
1F
100
AcDbEntity
  8
0
  6
Continuous
 62
     7
370
    25
100
AcDbPolyline
 90
       51
 70
     1
 43
0.0
 10
-424.6876531284256
 20
-32.43730787268464
 10
-422.1195281284257
 20
-31.74605787268456
 10
-416.8842181284257
 20
-29.82668287268462
 10
-409.7015281284257
 20
-25.1960578726846
 10
-401.3620281284257
 20
-20.10480787268455
 10
-397.6526381284257
 20
-18.99168287268458
 10
-393.7845281284258
 20
-18.65105787268476
 10
-387.9848381284257
 20
-17.85980787268465
 10
-384.3020281284257
 20
-16.05605787268473
 10
-383.6122681284257
 20
-14.67660287268472
 10
-384.2878431284257
 20
-13.65668287268477
 10
-390.9625281284258
 20
-12.10105787268469
 10
-398.0885281284258
 20
-11.60855787268474
 10
-400.0587131284257
 20
-12.15027787268468
 10
-401.2350281284257
 20
-13.23105787268469
 10
-402.2352531284258
 20
-14.34722787268469
 10
-403.5634681284257
 20
-14.61543287268466
 10
-408.3470281284258
 20
-12.44105787268461
 10
-414.5417781284256
 20
-10.12668287268457
 10
-421.6680281284257
 20
-9.166057872684746
 10
-427.7638431284257
 20
-8.476057872684691
 10
-429.5418331284257
 20
-7.596682872684596
 10
-430.4730281284257
 20
-6.346057872684696
 10
-431.5367531284257
 20
-5.046137872684653
 10
-433.6480881284257
 20
-4.170432872684614
 10
-441.6490281284257
 20
-3.52105787268465
 10
-446.9618181284257
 20
-3.709807872684564
 10
-450.5389681284257
 20
-4.438557872684668
 10
-453.1425181284257
 20
-5.951057872684714
 10
-455.5345281284258
 20
-8.491057872684677
 10
-458.5487631284258
 20
-13.61863787268453
 10
-459.2454031284257
 20
-17.42293287268467
 10
-458.7808481284257
 20
-18.48153787268461
 10
-457.8043581284257
 20
-18.79254287268463
 10
-454.4055281284257
 20
-16.61605787268468
 10
-451.6397181284258
 20
-15.33418287268466
 10
-447.8580281284258
 20
-15.15105787268476
 10
-445.5524581284257
 20
-15.72980787268454
 10
-444.2312181284258
 20
-16.90105787268476
 10
-443.5680281284257
 20
-22.71605787268459
 10
-443.0178431284257
 20
-28.48543287268467
 10
-441.8378481284257
 20
-29.71426287268469
 10
-439.8430281284257
 20
-30.27605787268465
 10
-437.1335281284257
 20
-31.51980787268462
 10
-436.1175281284257
 20
-33.77605787268476
 10
-435.8494581284257
 20
-35.09316787268472
 10
-434.8193431284257
 20
-36.00668287268468
 10
-430.1345281284257
 20
-36.71105787268448
 10
-425.7740931284257
 20
-36.10480787268466
 10
-424.9750681284257
 20
-35.33152787268455
 10
-425.0545281284257
 20
-34.23105787268469
  0
LWPOLYLINE
  5
AB9
330
1F
100
AcDbEntity
  8
0
  6
Continuous
 62
     7
370
    25
100
AcDbPolyline
 90
       30
 70
     1
 43
0.0
 10
-349.8782331284257
 20
-1.481602872684561
 10
-357.2370281284258
 20
9.812067127315458
 10
-365.0615731284258
 20
18.41792712731535
 10
-368.9368331284257
 20
21.43885212731539
 10
-372.6745281284258
 20
23.45894212731526
 10
-378.5307081284258
 20
24.99730212731538
 10
-388.1120881284258
 20
26.29331712731528
 10
-422.3450281284256
 20
28.53894212731541
 10
-483.8690281284256
 20
32.03394212731542
 10
-504.5275281284257
 20
32.82894212731549
 10
-504.4147631284257
 20
31.48816212731549
 10
-502.1006531284257
 20
30.07519212731529
 10
-498.4318581284257
 20
28.93784712731531
 10
-494.2550281284257
 20
28.42394212731529
 10
-472.5805281284257
 20
25.71394212731537
 10
-451.3151531284258
 20
23.1320671273154
 10
-422.6840281284258
 20
20.97394212731535
 10
-395.9999031284258
 20
18.67394212731528
 10
-380.2380281284257
 20
16.11894212731533
 10
-374.4526681284258
 20
13.85800212731544
 10
-369.2824981284257
 20
11.0298821273152
 10
-364.5912481284258
 20
7.469097127315421
 10
-360.2426531284257
 20
3.010192127315349
 10
-352.0283731284258
 20
-9.263867872684613
 10
-343.5495281284257
 20
-27.11605787268468
 10
-340.3921531284258
 20
-32.69855787268466
 10
-339.6164931284258
 20
-32.68586287268476
 10
-339.3726531284257
 20
-31.13730787268457
 10
-340.4698431284257
 20
-24.43293287268466
 10
-343.6625281284258
 20
-14.58605787268459
  0
LWPOLYLINE
  5
ABA
330
1F
100
AcDbEntity
  8
0
  6
Continuous
 62
     7
370
    25
100
AcDbPolyline
 90
       33
 70
     1
 43
0.0
 10
-489.0798581284257
 20
-16.23189787268461
 10
-488.0265431284256
 20
-11.81652787268456
 10
-487.4109031284257
 20
-1.322307872684632
 10
-488.7214481284257
 20
9.256287127315317
 10
-490.0758681284258
 20
13.77712712731545
 10
-491.8840281284257
 20
17.35894212731523
 10
-496.3150181284257
 20
22.1170671273153
 10
-500.7459681284257
 20
23.83769212731545
 10
-502.8555881284257
 20
23.5489821273153
 10
-504.8381931284257
 20
22.48894212731546
 10
-508.2530281284257
 20
18.03894212731541
 10
-510.1843431284257
 20
10.47433212731539
 10
-511.0045281284257
 20
0.2008171273153039
 10
-510.6183431284257
 20
-9.394887872684535
 10
-509.9430931284257
 20
-12.88020787268476
 10
-508.9305281284257
 20
-14.92605787268462
 10
-507.3964781284257
 20
-15.86524787268456
 10
-505.5066281284257
 20
-16.03082287268466
 10
-501.1833431284257
 20
-14.37418287268463
 10
-497.0082681284258
 20
-10.62222787268456
 10
-494.0290281284257
 20
-5.441057872684723
 10
-491.6585281284257
 20
1.103942127315349
 10
-491.5455281284257
 20
-5.781057872684641
 10
-492.1398881284257
 20
-11.22183787268466
 10
-494.1842781284257
 20
-15.26480787268463
 10
-497.5621681284257
 20
-17.78340287268452
 10
-502.1570281284257
 20
-18.65105787268476
 10
-505.5859031284257
 20
-19.17230787268454
 10
-504.5275281284257
 20
-21.4710578726847
 10
-501.3737631284257
 20
-23.72941787268473
 10
-497.5850281284257
 20
-24.12543287268477
 10
-493.7962931284257
 20
-22.74301287268463
 10
-490.6425281284257
 20
-19.66605787268474
  0
LWPOLYLINE
  5
ABB
330
1F
100
AcDbEntity
  8
0
  6
Continuous
 62
     7
370
    25
100
AcDbPolyline
 90
       25
 70
     1
 43
0.0
 10
-374.9797881284258
 20
-6.350822872684716
 10
-380.4778431284258
 20
0.7958171273153312
 10
-386.4203631284257
 20
6.291522127315374
 10
-392.2040281284258
 20
9.458942127315367
 10
-404.9887131284257
 20
11.33581712731529
 10
-427.0865281284257
 20
13.29894212731528
 10
-459.7251531284257
 20
15.14581712731535
 10
-464.1860731284257
 20
14.77339712731532
 10
-464.5215031284258
 20
14.2589121273154
 10
-464.0010281284258
 20
13.52394212731531
 10
-458.4871131284257
 20
11.57558212731533
 10
-447.7450931284257
 20
9.712067127315322
 10
-434.6324131284257
 20
8.314487127315373
 10
-422.0065281284258
 20
7.763942127315431
 10
-403.7538881284257
 20
6.654567127315317
 10
-396.6066481284257
 20
5.13882712731538
 10
-390.5389031284258
 20
2.867692127315308
 10
-385.3707381284257
 20
-0.2448478726846588
 10
-380.9222331284258
 20
-4.284807872684609
 10
-377.0134681284257
 20
-9.338207872684733
 10
-373.4645281284258
 20
-15.49105787268468
 10
-369.9104981284258
 20
-21.64996287268468
 10
-367.9755281284258
 20
-23.44855787268466
 10
-368.0513081284257
 20
-21.01340287268465
 10
-370.5295281284258
 20
-14.47105787268469
  0
LWPOLYLINE
  5
ABC
330
1F
100
AcDbEntity
  8
0
  6
Continuous
 62
     7
370
    25
100
AcDbPolyline
 90
       94
 70
     1
 43
0.0
 10
-211.6965281284257
 20
32.93894212731562
 10
-176.6022131284257
 20
37.66769212731538
 10
-114.1610281284257
 20
44.33894212731525
 10
-52.97652812842568
 20
50.88894212731543
 10
-13.46652812842569
 20
54.72894212731535
 10
45.80347187157417
 20
59.35394212731535
 10
93.70839187157434
 20
62.53316212731533
 10
146.6940968715743
 20
64.71769212731533
 10
201.7544868715743
 20
65.80159712731528
 10
255.8834718715743
 20
65.67894212731539
 10
303.6647218715742
 20
65.25519212731524
 10
324.1834718715743
 20
65.67894212731539
 10
323.2103468715743
 20
67.13269212731529
 10
319.4434718715744
 20
69.17894212731539
 10
315.7565968715743
 20
71.33573712731527
 10
315.1167918715742
 20
72.64086712731546
 10
315.3622218715743
 20
74.32831712731536
 10
318.7572218715743
 20
79.5437071273152
 10
326.4384718715743
 20
88.36894212731545
 10
335.4734718715743
 20
98.41394212731552
 10
380.6284718715742
 20
99.99394212731544
 10
412.9059718715742
 20
100.6853471273154
 10
423.2628068715741
 20
100.2880221273153
 10
430.6522218715742
 20
99.17644212731534
 10
435.7396068715742
 20
97.18642212731538
 10
439.1903468715743
 20
94.15378712731536
 10
441.6698368715742
 20
89.91435212731516
 10
443.8434718715743
 20
84.3039421273154
 10
445.1843318715742
 20
78.78628712731529
 10
444.8834818715742
 20
76.92200712731528
 10
443.815346871574
 20
75.55519212731519
 10
439.0179268715741
 20
74.01722212731534
 10
430.0734718715741
 20
73.57894212731548
 10
422.409096871574
 20
73.12831712731554
 10
419.2334718715742
 20
71.99894212731533
 10
423.9151918715743
 20
70.18808212731528
 10
434.3334718715744
 20
68.0908171273154
 10
445.0480018715743
 20
66.64886212731516
 10
450.6184718715742
 20
66.80394212731539
 10
450.9140968715741
 20
71.04706712731536
 10
449.2634718715741
 20
78.98394212731545
 10
446.4278468715742
 20
87.74581712731537
 10
443.1684718715741
 20
94.46394212731547
 10
437.4423768715741
 20
101.5052721273152
 10
434.0909518715741
 20
103.9570971273153
 10
429.7897218715743
 20
105.9220671273153
 10
416.465191871574
 20
109.0685521273155
 10
393.7234718715743
 20
112.2989421273153
 10
353.4184718715743
 20
117.9439421273152
 10
348.6784718715742
 20
119.1839421273153
 10
352.8584718715744
 20
120.7639421273154
 10
355.8922218715743
 20
122.4176921273153
 10
357.1484718715742
 20
124.1539421273153
 10
354.8748768715743
 20
127.4152821273153
 10
348.8240968715743
 20
132.9927721273154
 10
330.0109718715741
 20
147.7045671273154
 10
309.9490968715743
 20
161.5060521273153
 10
302.3373768715742
 20
165.9456521273152
 10
297.8784718715742
 20
167.6139421273153
 10
296.7040968715742
 20
167.2116771273154
 10
296.7784718715742
 20
165.8358171273153
 10
300.9284718715742
 20
159.1489421273152
 10
305.8109718715743
 20
150.3995671273153
 10
307.8134718715743
 20
140.6339421273153
 10
307.6304268715742
 20
130.4005021273153
 10
305.5840968715743
 20
120.3151921273154
 10
301.9712068715743
 20
111.3305071273153
 10
297.0884718715743
 20
104.3989421273152
 10
294.5800918715743
 20
102.0729971273153
 10
291.6455018715742
 20
100.2710521273154
 10
287.4248968715743
 20
98.88196212731532
 10
281.0584718715743
 20
97.7945671273153
 10
258.4489418715743
 20
96.08027212731554
 10
216.9384718715742
 20
94.23894212731534
 10
55.1684718715743
 20
86.78894212731552
 10
-8.334163128425757
 20
81.83456712731526
 10
-86.0939631284258
 20
73.74894212731533
 10
-155.7900531284257
 20
65.07081712731542
 10
-180.6389231284257
 20
61.30292712731557
 10
-195.1015281284258
 20
58.33894212731547
 10
-208.3942181284257
 20
53.85269212731532
 10
-221.8560281284258
 20
48.51894212731554
 10
-229.3243031284258
 20
45.17917712731537
 10
-233.4270881284258
 20
42.71831712731523
 10
-235.1592231284258
 20
40.27902212731532
 10
-235.5155281284257
 20
37.00394212731544
 10
-232.9826381284257
 20
29.64433212731547
 10
-227.1901531284257
 20
18.5183171273153
 10
-220.8473581284258
 20
8.366362127315369
 10
-218.3162431284258
 20
5.137057127315415
 10
-216.6635281284257
 20
3.928942127315394
 10
-216.1695281284258
 20
8.048317127315385
 10
-216.4375281284257
 20
17.92394212731528
 10
-217.1150281284258
 20
31.80894212731528
  0
LWPOLYLINE
  5
ABD
330
1F
100
AcDbEntity
  8
0
  6
Continuous
 62
     7
370
    25
100
AcDbPolyline
 90
       30
 70
     1
 43
0.0
 10
-241.6980581284258
 20
45.01441212731537
 10
-230.3932781284257
 20
53.03394212731541
 10
-217.5011231284257
 20
60.03722212731531
 10
-204.4715281284257
 20
65.11394212731534
 10
-180.7773081284258
 20
70.62855212731552
 10
-147.5901531284257
 20
76.30206712731546
 10
-110.1911831284258
 20
81.32027212731555
 10
-73.86152812842579
 20
84.86894212731545
 10
-14.03090312842573
 20
90.3570671273153
 10
4.337926871574154
 20
92.75730212731559
 10
11.93347187157428
 20
94.57394212731538
 10
12.41495687157419
 20
95.39808212731509
 10
11.96409687157427
 20
95.83081712731541
 10
8.098471871574247
 20
95.47894212731534
 10
-38.86652812842567
 20
92.31894212731527
 10
-113.9645931284257
 20
87.40831712731528
 10
-143.7345981284257
 20
84.41370712731531
 10
-167.2185281284257
 20
81.1439421273153
 10
-206.3905281284257
 20
75.4989421273151
 10
-222.0873031284258
 20
73.06331712731548
 10
-239.3397131284257
 20
69.13519212731535
 10
-259.1109131284258
 20
63.4501921273154
 10
-282.3640281284258
 20
55.74394212731545
 10
-300.1897231284258
 20
49.41964712731532
 10
-311.0093431284258
 20
44.94831712731524
 10
-317.6380531284258
 20
40.96355212731532
 10
-322.8910281284258
 20
36.09894212731524
 10
-328.4225281284258
 20
30.34394212731536
 10
-255.2710281284257
 20
30.34394212731536
 10
-249.9655281284257
 20
36.88894212731543
  0
LWPOLYLINE
  5
ABE
330
1F
100
AcDbEntity
  8
0
  6
Continuous
 62
     7
370
    25
100
AcDbPolyline
 90
       15
 70
     1
 43
0.0
 10
-320.6330281284258
 20
51.22894212731535
 10
-312.3500881284257
 20
57.06831712731537
 10
-308.8930281284257
 20
60.36894212731522
 10
-310.2071031284257
 20
61.33346212731544
 10
-313.7965531284258
 20
61.05292712731557
 10
-325.6849681284258
 20
57.53456712731531
 10
-340.3250381284258
 20
51.36964712731537
 10
-353.4835281284257
 20
44.11394212731534
 10
-361.2728431284257
 20
38.14581712731524
 10
-362.0560981284258
 20
36.32120712731535
 10
-361.2730281284257
 20
34.63394212731532
 10
-357.6411131284257
 20
32.80745712731528
 10
-352.1995881284257
 20
32.98206712731531
 10
-345.7632881284258
 20
34.99886212731553
 10
-339.1470281284258
 20
38.69894212731538
  0
LWPOLYLINE
  5
ABF
330
1F
100
AcDbEntity
  8
0
  6
Continuous
 62
     7
370
    25
100
AcDbPolyline
 90
       31
 70
     1
 43
0.0
 10
-368.5716431284258
 20
49.90316212731546
 10
-360.6519631284257
 20
54.68394212731528
 10
-348.6683181284258
 20
59.06347212731543
 10
-330.5675281284258
 20
63.98394212731545
 10
-300.3380431284258
 20
70.78105212731543
 10
-262.0442781284257
 20
77.1220671273154
 10
-201.5681381284257
 20
85.05027212731533
 10
-104.7915281284257
 20
96.60894212731523
 10
-85.94152812842571
 20
98.75394212731544
 10
-100.0515281284257
 20
100.4489421273154
 10
-120.3475031284257
 20
101.2984721273153
 10
-152.1055881284257
 20
101.0801921273153
 10
-187.6951431284257
 20
99.95253712731528
 10
-219.4855281284257
 20
98.07394212731537
 10
-294.6688431284258
 20
90.35581712731527
 10
-332.5462681284258
 20
85.58152212731556
 10
-363.4175281284258
 20
81.02894212731531
 10
-410.6506631284258
 20
72.46105212731549
 10
-454.5182181284257
 20
63.19331712731536
 10
-488.2258031284258
 20
54.77214712731529
 10
-499.1463581284257
 20
51.36227212731523
 10
-504.9790281284257
 20
48.74394212731544
 10
-509.3023481284257
 20
44.94800712731534
 10
-510.1404481284257
 20
43.39421712731541
 10
-510.1014681284257
 20
42.08394212731514
 10
-507.4081131284257
 20
40.23613212731516
 10
-501.2540281284257
 20
39.48894212731534
 10
-454.7440281284257
 20
37.90894212731541
 10
-398.8645281284257
 20
36.32394212731538
 10
-380.6895281284258
 20
35.98894212731534
 10
-374.4805281284257
 20
43.7789421273153
  0
LWPOLYLINE
  5
AC0
330
1F
100
AcDbEntity
  8
0
  6
Continuous
 62
     7
370
    25
100
AcDbPolyline
 90
       38
 70
     1
 43
0.0
 10
23.75253187157432
 20
170.6824571273152
 10
42.5284718715742
 20
184.0989421273155
 10
53.25347187157422
 20
191.2089421273153
 10
42.97847187157424
 20
191.7739421273154
 10
33.20097187157433
 20
191.5189421273153
 10
24.35347187157424
 20
190.0789421273152
 10
17.47530687157416
 20
187.3251321273153
 10
8.083471871574261
 20
182.3537871273154
 10
-16.82277812842574
 20
166.7114421273154
 10
-47.52840312842567
 20
145.0578471273154
 10
-81.19652812842572
 20
119.2989421273153
 10
-89.66652812842573
 20
112.6389421273154
 10
-109.8715281284257
 20
113.4289421273154
 10
-124.5325281284257
 20
114.4583171273154
 10
-131.3200281284257
 20
115.5739421273153
 10
-131.0905531284257
 20
117.6673521273153
 10
-128.5737331284257
 20
121.6946471273154
 10
-117.9004031284257
 20
134.2283171273154
 10
-101.7447631284257
 20
150.5298021273154
 10
-82.55152812842572
 20
167.9539421273155
 10
-73.32340312842575
 20
176.7601921273153
 10
-72.04332312842587
 20
179.0028471273153
 10
-72.73152812842579
 20
180.1439421273153
 10
-74.54738812842572
 20
179.7485121273155
 10
-77.69881312842585
 20
177.8903471273154
 10
-87.18018312842572
 20
170.5808171273154
 10
-113.0597781284257
 20
147.1539421273155
 10
-137.1194981284256
 20
122.5833171273154
 10
-144.3260231284258
 20
113.8440971273155
 10
-145.9988031284258
 20
111.0566371273155
 10
-146.1085281284257
 20
109.5889421273154
 10
-132.9992181284258
 20
108.4201921273154
 10
-103.2110281284257
 20
107.3339421273153
 10
-49.02652812842575
 20
105.9789421273153
 10
-36.6065281284258
 20
105.5289421273153
 10
-23.28652812842574
 20
123.0239421273154
 10
-8.76309312842568
 20
140.5044871273153
 10
6.785971871574247
 20
156.2708171273152
  0
LWPOLYLINE
  5
AC1
330
1F
100
AcDbEntity
  8
0
  6
Continuous
 62
     7
370
    25
100
AcDbPolyline
 90
       15
 70
     1
 43
0.0
 10
374.8151118715743
 20
-67.20816787268472
 10
371.6953468715743
 20
-62.61918287268463
 10
367.2846418715743
 20
-59.38488787268465
 10
362.2284718715741
 20
-58.16105787268464
 10
357.9902318715742
 20
-58.49616287268464
 10
354.9306568715743
 20
-59.44504287268467
 10
353.0537468715743
 20
-60.92302287268466
 10
352.3634718715742
 20
-62.84543287268468
 10
352.8638218715741
 20
-65.12761287268472
 10
354.5587818715743
 20
-67.68488787268461
 10
361.5484718715742
 20
-73.28605787268452
 10
367.3774568715742
 20
-76.14808787268464
 10
371.9478468715743
 20
-76.95605787268471
 10
374.9310518715741
 20
-75.73152787268464
 10
375.9984718715744
 20
-72.49605787268456
  0
LWPOLYLINE
  5
AC2
330
1F
100
AcDbEntity
  8
0
  6
Continuous
 62
     7
370
    25
100
AcDbPolyline
 90
       11
 70
     1
 43
0.0
 10
398.3498018715742
 20
-52.34058787268463
 10
399.7890968715743
 20
-47.3523078726846
 10
399.0693318715742
 20
-45.36965287268469
 10
396.3184718715744
 20
-45.29105787268474
 10
392.1422218715743
 20
-47.49355787268462
 10
388.3034718715742
 20
-52.74105787268467
 10
385.7065968715742
 20
-59.24855787268461
 10
385.8263618715742
 20
-61.74387287268451
 10
386.8334718715743
 20
-64.48105787268469
 10
390.1084718715742
 20
-69.45105787268471
 10
394.6234718715743
 20
-61.4360578726845
  0
LWPOLYLINE
  5
AC3
330
1F
100
AcDbEntity
  8
0
  6
Continuous
 62
     7
370
    25
100
AcDbPolyline
 90
       15
 70
     1
 43
0.0
 10
361.5744868715743
 20
-37.89394787268475
 10
361.1390968715742
 20
-33.32543287268459
 10
358.9046418715743
 20
-29.43472787268468
 10
355.1134718715741
 20
-27.00605787268467
 10
351.9191768715742
 20
-26.72949787268454
 10
349.6253468715743
 20
-28.10480787268466
 10
348.2418318715743
 20
-31.13199787268468
 10
347.7784718715741
 20
-35.8110578726845
 10
348.8569868715742
 20
-42.83347787268462
 10
350.1268218715743
 20
-45.12368287268464
 10
351.7565968715743
 20
-46.53293287268456
 10
353.6509818715742
 20
-47.01100787268456
 10
355.7146418715742
 20
-46.50769787268473
 10
357.8522518715743
 20
-44.97278787268465
 10
359.9684718715744
 20
-42.35605787268468
  0
LWPOLYLINE
  5
AC4
330
1F
100
AcDbEntity
  8
0
  6
Continuous
 62
     7
370
    25
100
AcDbPolyline
 90
       11
 70
     1
 43
0.0
 10
377.5702668715743
 20
-9.088792872684507
 10
376.6065968715743
 20
-10.87543287268465
 10
374.9834718715742
 20
-23.39105787268477
 10
374.6859718715742
 20
-34.66605787268475
 10
376.3384718715743
 20
-42.13105787268466
 10
377.6844118715742
 20
-44.7231678726846
 10
378.1381218715743
 20
-44.86067787268462
 10
378.4809718715743
 20
-44.06543287268471
 10
379.2734718715743
 20
-29.15105787268465
 10
379.3834718715742
 20
-15.78793287268467
 10
378.8184718715744
 20
-9.621057872684673
  0
LWPOLYLINE
  5
AC5
330
1F
100
AcDbEntity
  8
0
  6
Continuous
 62
     7
370
    25
100
AcDbPolyline
 90
       16
 70
     1
 43
0.0
 10
403.4908168715742
 20
-21.4274628726846
 10
402.9222218715743
 20
-15.34855787268464
 10
401.4217518715743
 20
-10.7509028726846
 10
399.1384718715742
 20
-8.376057872684668
 10
397.4636268715742
 20
-8.249717872684641
 10
395.5740968715743
 20
-8.951602872684588
 10
391.6909718715742
 20
-12.21543287268469
 10
388.5690968715743
 20
-16.9183228726846
 10
387.2884718715742
 20
-21.81105787268462
 10
388.1299568715742
 20
-27.01066787268473
 10
390.3790968715743
 20
-31.40543287268463
 10
393.6229268715742
 20
-34.44551287268462
 10
397.4484718715743
 20
-35.58105787268471
 10
399.7082368715743
 20
-35.27660287268464
 10
401.2278468715742
 20
-34.15793287268468
 10
402.9784718715742
 20
-28.24605787268456
  0
LWPOLYLINE
  5
AC6
330
1F
100
AcDbEntity
  8
0
  6
Continuous
 62
     7
370
    25
100
AcDbPolyline
 90
       23
 70
     1
 43
0.0
 10
317.5837068715744
 20
-5.094572872684693
 10
323.2238718715743
 20
-2.904287872684562
 10
327.1878468715743
 20
0.2570671273153948
 10
329.8447118715743
 20
4.81553212731535
 10
331.5635518715742
 20
11.19714712731525
 10
333.6634718715742
 20
31.13394212731532
 10
333.9712068715741
 20
43.42964712731531
 10
333.5334818715743
 20
46.12940212731541
 10
332.8178468715744
 20
46.61331712731521
 10
330.9023018715742
 20
41.18230212731532
 10
328.9234718715742
 20
27.63394212731532
 10
326.6879268715743
 20
12.79902212731531
 10
324.7419018715742
 20
7.896432127315392
 10
321.7003468715743
 20
4.208317127315353
 10
317.1557468715743
 20
1.388092127315303
 10
310.7005818715742
 20
-0.9108228726847755
 10
290.4284718715742
 20
-5.331057872684596
 10
276.8109718715742
 20
-8.463557872684532
 10
269.8834718715742
 20
-11.08605787268448
 10
269.1605018715743
 20
-12.10496287268461
 10
269.4322218715742
 20
-12.62605787268478
 10
273.3834718715743
 20
-12.2160578726847
 10
299.7984718715743
 20
-8.266057872684768
  0
LWPOLYLINE
  5
AC7
330
1F
100
AcDbEntity
  8
0
  6
Continuous
 62
     7
370
    25
100
AcDbPolyline
 90
       14
 70
     1
 43
0.0
 10
371.1859718715742
 20
1.345817127315399
 10
372.1584718715743
 20
5.733942127315344
 10
371.3881618715742
 20
10.05323712731547
 10
369.4647218715743
 20
14.38331712731531
 10
366.9694118715741
 20
17.71870712731538
 10
364.4834718715742
 20
19.05394212731539
 10
361.6588618715744
 20
15.82644212731532
 10
357.9778468715742
 20
8.556442127315449
 10
355.0383918715743
 20
0.8626921273154266
 10
354.4384718715742
 20
-3.636057872684659
 10
356.8674568715742
 20
-5.1385578726846
 10
360.8428468715743
 20
-5.328557872684655
 10
365.1998018715742
 20
-4.33355787268465
 10
368.7734718715743
 20
-2.281057872684641
  0
LWPOLYLINE
  5
AC8
330
1F
100
AcDbEntity
  8
0
  6
Continuous
 62
     7
370
    25
100
AcDbPolyline
 90
       14
 70
     1
 43
0.0
 10
399.4433168715742
 20
9.458707127315392
 10
397.2647218715743
 20
16.17581712731544
 10
394.8105018715743
 20
22.13073712731534
 10
393.0434718715744
 20
24.69894212731527
 10
387.6234718715742
 20
20.40894212731541
 10
385.3415168715742
 20
16.79370712731531
 10
384.5928468715742
 20
12.74581712731537
 10
385.3882368715742
 20
8.550737127315414
 10
387.7384718715743
 20
4.493942127315449
 10
390.7626118715742
 20
2.668942127315403
 10
394.9928468715742
 20
2.092692127315331
 10
398.7571418715743
 20
2.744567127315349
 10
399.9420568715742
 20
3.524607127315334
 10
400.3834718715743
 20
4.603942127315349
  0
LWPOLYLINE
  5
AC9
330
1F
100
AcDbEntity
  8
0
  6
Continuous
 62
     7
370
    25
100
AcDbPolyline
 90
       37
 70
     1
 43
0.0
 10
413.4252468715742
 20
27.44221212731531
 10
411.9773768715742
 20
32.8841771273153
 10
409.6775518715741
 20
37.96930212731536
 10
406.6184718715742
 20
42.57706712731533
 10
402.8928268715741
 20
46.58694212731529
 10
398.5933168715743
 20
49.87839712731534
 10
393.8126318715743
 20
52.33090712731542
 10
388.6434718715743
 20
53.82394212731537
 10
382.1988618715742
 20
53.7319871273155
 10
374.4328468715742
 20
51.73456712731535
 10
366.6883918715742
 20
48.29808212731541
 10
360.3084718715743
 20
43.88894212731543
 10
356.0508918715742
 20
39.23339712731536
 10
351.4028468715742
 20
32.88331712731543
 10
347.3688618715743
 20
26.36355212731542
 10
344.9534718715741
 20
21.19894212731527
 10
344.4465968715743
 20
17.8408171273154
 10
347.6634718715743
 20
19.05394212731539
 10
351.6284718715742
 20
22.31456712731529
 10
355.3384718715743
 20
27.18394212731528
 10
358.9974368715741
 20
32.08824712731553
 10
363.4789418715743
 20
36.17370712731531
 10
368.5686468715743
 20
39.37287712731541
 10
374.0522218715743
 20
41.61831712731532
 10
379.7153268715742
 20
42.84258712731525
 10
385.3436268715743
 20
42.97823712731542
 10
390.7227868715742
 20
41.95783712731532
 10
395.6384718715742
 20
39.71394212731548
 10
400.8159718715742
 20
35.77448712731552
 10
404.5309718715743
 20
30.89331712731541
 10
407.1022218715742
 20
24.55245712731528
 10
408.8484718715742
 20
16.23394212731534
 10
410.2597218715742
 20
9.431442127315335
 10
411.0394068715741
 20
8.993162127315372
 10
412.0084718715743
 20
10.24894212731533
 10
413.3490968715742
 20
14.99019212731537
 10
413.9284718715741
 20
21.76394212731543
  0
LWPOLYLINE
  5
ACA
330
1F
100
AcDbEntity
  8
0
  6
Continuous
 62
     7
370
    25
100
AcDbPolyline
 90
       88
 70
     1
 43
0.0
 10
138.5934718715741
 20
146.2789421273153
 10
154.4134718715743
 20
176.4495671273152
 10
159.6295668715742
 20
184.6660521273154
 10
163.5434718715742
 20
189.1789421273154
 10
167.5273768715742
 20
192.2282371273152
 10
171.6284718715743
 20
193.6795671273153
 10
178.2908168715741
 20
193.9243321273152
 10
189.9584718715742
 20
193.3539421273153
 10
211.8203468715743
 20
191.0911271273153
 10
234.8034718715742
 20
186.5951921273154
 10
259.5228468715742
 20
179.7498821273152
 10
286.5934718715743
 20
170.4389421273156
 10
289.3872218715743
 20
169.7470671273154
 10
286.5934718715743
 20
173.0339421273154
 10
282.8131668715741
 20
175.5950571273154
 10
276.0179268715742
 20
178.8744121273152
 10
256.2665968715742
 20
186.5664421273154
 10
233.1074568715743
 20
194.0672221273155
 10
212.3084718715743
 20
199.3339421273153
 10
188.1859718715743
 20
203.1028471273153
 10
160.2834718715743
 20
205.7701921273153
 10
128.5072218715742
 20
207.3369121273154
 10
92.76347187157421
 20
207.8039421273154
 10
54.88175187157435
 20
206.9948771273155
 10
17.46597187157431
 20
204.9801921273154
 10
-14.10730812842575
 20
202.1198821273153
 10
-34.46152812842581
 20
198.7739421273152
 10
-45.86652812842578
 20
195.3430071273153
 10
-56.18027812842581
 20
191.4901921273153
 10
-63.59340312842573
 20
187.9767571273153
 10
-66.29652812842573
 20
185.5639421273154
 10
-65.16723312842578
 20
184.2088621273153
 10
-61.83715312842571
 20
184.2933171273152
 10
-45.86152812842579
 20
189.2889421273155
 10
-36.43144812842582
 20
191.9233371273153
 10
-24.37121812842566
 20
194.0684721273153
 10
7.279721871574224
 20
196.8801921273154
 10
48.37128187157418
 20
197.7025371273153
 10
98.18347187157428
 20
196.5139421273154
 10
117.0505018715743
 20
195.4361271273153
 10
127.6309718715741
 20
193.7339421273152
 10
130.5447018715742
 20
192.4137471273154
 10
132.2639418715741
 20
190.6555021273154
 10
133.0810718715743
 20
188.3652321273155
 10
133.2884718715743
 20
185.4489421273154
 10
132.0846418715742
 20
180.6144671273152
 10
128.8647218715742
 20
172.0397221273153
 10
118.7259718715743
 20
148.7764421273152
 10
107.5709718715742
 20
125.8731621273152
 10
103.0807368715742
 20
117.7484171273154
 10
100.0984718715742
 20
113.5439421273154
 10
96.75144187157423
 20
111.1758971273154
 10
91.52097187157426
 20
109.9295671273153
 10
63.63847187157421
 20
109.3639421273155
 10
31.80347187157429
 20
109.3639421273155
 10
30.56347187157417
 20
115.9139421273155
 10
29.98435187157429
 20
122.0235421273153
 10
30.41831687157424
 20
128.3463621273154
 10
31.8204818715742
 20
134.7778171273153
 10
34.14597187157426
 20
141.2133171273153
 10
37.34989687157429
 20
147.5482671273153
 10
41.38737687157425
 20
153.6780821273153
 10
46.21353187157433
 20
159.4981721273154
 10
51.78347187157431
 20
164.9039421273153
 10
72.55347187157429
 20
181.4989421273153
 10
78.83831687157419
 20
186.3975371273154
 10
81.84097187157432
 20
189.6864421273153
 10
82.14458687157423
 20
190.7802921273153
 10
81.66737687157434
 20
191.5353471273154
 10
78.42347187157418
 20
192.1139421273153
 10
73.37375687157418
 20
190.6369521273154
 10
65.41386187157423
 20
186.6064421273154
 10
44.27659687157415
 20
173.2876921273152
 10
22.03776687157426
 20
156.9633171273153
 10
12.70092187157422
 20
149.1757771273153
 10
5.723471871574247
 20
142.4389421273153
 10
-2.260903128425752
 20
131.9414421273154
 10
-7.706528128425816
 20
121.4439421273152
 10
-10.6237181284257
 20
113.0164421273155
 10
-11.31902812842577
 20
108.2076921273153
 10
-10.78719312842577
 20
106.8363271273153
 10
-9.644343128425703
 20
105.9808171273153
 10
-5.451528128425707
 20
105.2989421273153
 10
94.90847187157431
 20
102.1389421273154
 10
110.9928468715743
 20
102.4358171273154
 10
114.6543318715742
 20
103.4263621273153
 10
116.9184718715743
 20
105.1889421273153
 10
124.5815968715742
 20
118.6651921273153
  0
LWPOLYLINE
  5
ACB
330
1F
100
AcDbEntity
  8
0
  6
Continuous
 62
     7
370
    25
100
AcDbPolyline
 90
       24
 70
     1
 43
0.0
 10
171.8822218715743
 20
164.3845671273154
 10
176.0048768715743
 20
168.8382371273153
 10
179.1234718715743
 20
171.2289421273153
 10
183.1008918715743
 20
172.4425371273153
 10
189.3540968715742
 20
172.8939421273155
 10
215.2484718715742
 20
171.6789421273154
 10
254.9834718715743
 20
168.2939421273154
 10
262.4444118715743
 20
167.8689421273152
 10
262.8531968715742
 20
168.3871071273154
 10
261.2484718715742
 20
169.3076921273155
 10
252.6012868715743
 20
172.1020671273154
 10
237.7084718715744
 20
175.7439421273154
 10
217.2055818715743
 20
180.1069621273154
 10
201.3578468715743
 20
182.8812071273153
 10
189.3173018715741
 20
183.8326021273153
 10
180.2359718715743
 20
182.7270671273154
 10
173.2658918715742
 20
179.3305121273154
 10
167.5590968715742
 20
173.4088621273151
 10
162.2676118715742
 20
164.7280321273153
 10
156.5434718715741
 20
153.0539421273154
 10
148.6835518715743
 20
135.9615221273154
 10
146.6665968715742
 20
129.9395671273153
 10
150.8305818715743
 20
134.7973021273153
 10
161.5134718715742
 20
150.3439421273153
  0
ENDSEC
  0
SECTION
  2
OBJECTS
  0
DICTIONARY
  5
C
330
0
100
AcDbDictionary
281
     1
  3
ACAD_CIP_PREVIOUS_PRODUCT_INFO
350
AA4
  3
ACAD_COLOR
350
A99
  3
ACAD_DETAILVIEWSTYLE
350
AA0
  3
ACAD_GROUP
350
D
  3
ACAD_LAYOUT
350
1A
  3
ACAD_MATERIAL
350
A67
  3
ACAD_MLEADERSTYLE
350
A9C
  3
ACAD_MLINESTYLE
350
17
  3
ACAD_PLOTSETTINGS
350
19
  3
ACAD_PLOTSTYLENAME
350
E
  3
ACAD_SCALELIST
350
47
  3
ACAD_SECTIONVIEWSTYLE
350
A9E
  3
ACAD_TABLESTYLE
350
A9A
  3
ACAD_VISUALSTYLE
350
A80
  3
ACDB_RECOMPOSE_DATA
350
AFD
  3
AcDbVariableDictionary
350
ACC
  0
DICTIONARY
  5
AE3
330
2
100
AcDbDictionary
280
     1
281
     1
  3
ACAD_LAYERSTATES
360
AE4
  0
DICTIONARY
  5
ADE
330
10
100
AcDbDictionary
280
     1
281
     1
  3
ADSK_XREC_LAYER_RECONCILED
360
ADF
  0
XRECORD
  5
AA4
102
{ACAD_REACTORS
330
C
102
}
330
C
100
AcDbXrecord
280
     1
300
ACD
300
2016
300
ACD_F_S
  0
DICTIONARY
  5
A99
102
{ACAD_REACTORS
330
C
102
}
330
C
100
AcDbDictionary
281
     1
  0
DICTIONARY
  5
AA0
102
{ACAD_REACTORS
330
C
102
}
330
C
100
AcDbDictionary
281
     1
  3
Metric50
350
AA1
  0
DICTIONARY
  5
D
102
{ACAD_REACTORS
330
C
102
}
330
C
100
AcDbDictionary
281
     1
  0
DICTIONARY
  5
1A
102
{ACAD_REACTORS
330
C
102
}
330
C
100
AcDbDictionary
281
     1
  3
Layout1
350
1E
  3
Layout2
350
26
  3
Model
350
22
  0
DICTIONARY
  5
A67
102
{ACAD_REACTORS
330
C
102
}
330
C
100
AcDbDictionary
281
     1
  3
ByBlock
350
A70
  3
ByLayer
350
A68
  3
Global
350
A78
  0
DICTIONARY
  5
A9C
102
{ACAD_REACTORS
330
C
102
}
330
C
100
AcDbDictionary
281
     1
  3
Standard
350
A9D
  0
DICTIONARY
  5
17
102
{ACAD_REACTORS
330
C
102
}
330
C
100
AcDbDictionary
281
     1
  3
Standard
350
18
  0
DICTIONARY
  5
19
102
{ACAD_REACTORS
330
C
102
}
330
C
100
AcDbDictionary
281
     1
  0
ACDBDICTIONARYWDFLT
  5
E
102
{ACAD_REACTORS
330
C
102
}
330
C
100
AcDbDictionary
281
     1
  3
Normal
350
F
100
AcDbDictionaryWithDefault
340
F
  0
DICTIONARY
  5
47
102
{ACAD_REACTORS
330
C
102
}
330
C
100
AcDbDictionary
281
     1
  3
A0
350
48
  3
A1
350
49
  3
A2
350
4A
  3
A3
350
4B
  3
A4
350
4C
  3
A5
350
4D
  3
A6
350
4E
  3
A7
350
4F
  3
A8
350
50
  3
A9
350
51
  3
B0
350
52
  3
B1
350
53
  3
B2
350
54
  3
B3
350
55
  3
B4
350
56
  3
B5
350
57
  3
B6
350
58
  3
B7
350
59
  3
B8
350
5A
  3
B9
350
5B
  3
C0
350
5C
  3
C1
350
5D
  3
C2
350
5E
  3
C3
350
5F
  3
C4
350
60
  3
C5
350
61
  3
C6
350
62
  3
C7
350
63
  3
C8
350
64
  3
C9
350
65
  3
D0
350
66
  3
D1
350
67
  3
D2
350
68
  0
DICTIONARY
  5
A9E
102
{ACAD_REACTORS
330
C
102
}
330
C
100
AcDbDictionary
281
     1
  3
Metric50
350
A9F
  0
DICTIONARY
  5
A9A
102
{ACAD_REACTORS
330
C
102
}
330
C
100
AcDbDictionary
281
     1
  3
Standard
350
A9B
  0
DICTIONARY
  5
A80
102
{ACAD_REACTORS
330
C
102
}
330
C
100
AcDbDictionary
281
     1
  3
2dWireframe
350
A86
  3
Basic
350
A85
  3
Brighten
350
A8C
  3
ColorChange
350
A90
  3
Conceptual
350
A89
  3
Dim
350
A8B
  3
EdgeColorOff
350
A98
  3
Facepattern
350
A8F
  3
Flat
350
A81
  3
FlatWithEdges
350
A82
  3
Gouraud
350
A83
  3
GouraudWithEdges
350
A84
  3
Hidden
350
A88
  3
JitterOff
350
A96
  3
Linepattern
350
A8E
  3
OverhangOff
350
A97
  3
Realistic
350
A8A
  3
Shaded
350
A95
  3
Shaded with edges
350
A94
  3
Shades of Gray
350
A91
  3
Sketchy
350
A92
  3
Thicken
350
A8D
  3
Wireframe
350
A87
  3
X-Ray
350
A93
  0
XRECORD
  5
AFD
102
{ACAD_REACTORS
330
C
102
}
330
C
100
AcDbXrecord
280
     1
 90
        1
330
A9B
330
A9F
330
AA1
  0
DICTIONARY
  5
ACC
102
{ACAD_REACTORS
330
C
102
}
330
C
100
AcDbDictionary
281
     1
  3
CANNOSCALE
350
AD2
  3
CMLEADERSTYLE
350
ACE
  3
CTABLESTYLE
350
ACD
  3
CVIEWDETAILSTYLE
350
ACF
  3
CVIEWSECTIONSTYLE
350
AD0
  3
LAYEREVAL
350
AD4
  3
LAYERNOTIFY
350
AD5
  3
LIGHTINGUNITS
350
AD3
  3
MSLTSCALE
350
AD1
  0
DICTIONARY
  5
AE4
102
{ACAD_REACTORS
330
AE3
102
}
330
AE3
100
AcDbDictionary
281
     1
  0
XRECORD
  5
ADF
102
{ACAD_REACTORS
330
ADE
102
}
330
ADE
100
AcDbXrecord
280
     1
290
     1
  0
ACDBDETAILVIEWSTYLE
  5
AA1
102
{ACAD_XDICTIONARY
360
AFB
102
}
102
{ACAD_REACTORS
330
AA0
102
}
330
AA0
100
AcDbModelDocViewStyle
 70
     0
  3
Metric50
290
     0
100
AcDbDetailViewStyle
 70
     0
 71
     0
 90
        3
 71
     1
340
11
 62
   256
 40
5.0
340
0
 62
   256
 40
5.0
300

 40
0.0
280
     1
 71
     2
340
16
 90
       25
 62
   256
 71
     3
340
11
 62
   256
 40
5.0
 90
        0
 40
15.0
 90
        1
300
%<\AcVar ViewDetailId>% (%<\AcVar ViewScale \f "%sn">%)
 71
     4
340
16
 90
       25
 62
   256
340
16
 90
       25
 62
   256
280
     0
  0
LAYOUT
  5
1E
102
{ACAD_REACTORS
330
1A
102
}
330
1A
100
AcDbPlotSettings
  1

  2
none_device
  4

  6

 40
0.0
 41
0.0
 42
0.0
 43
0.0
 44
0.0
 45
0.0
 46
0.0
 47
0.0
 48
0.0
 49
0.0
140
0.0
141
0.0
142
1.0
143
1.0
 70
   688
 72
     1
 73
     0
 74
     5
  7

 75
    16
147
1.0
 76
     0
 77
     2
 78
   300
148
0.0
149
0.0
100
AcDbLayout
  1
Layout1
 70
     1
 71
     1
 10
0.0
 20
0.0
 11
420.0
 21
297.0
 12
0.0
 22
0.0
 32
0.0
 14
1.000000000000000E+20
 24
1.000000000000000E+20
 34
1.000000000000000E+20
 15
-1.000000000000000E+20
 25
-1.000000000000000E+20
 35
-1.000000000000000E+20
146
0.0
 13
0.0
 23
0.0
 33
0.0
 16
1.0
 26
0.0
 36
0.0
 17
0.0
 27
1.0
 37
0.0
 76
     0
330
1B
  0
LAYOUT
  5
26
102
{ACAD_REACTORS
330
1A
102
}
330
1A
100
AcDbPlotSettings
  1

  2
none_device
  4

  6

 40
0.0
 41
0.0
 42
0.0
 43
0.0
 44
0.0
 45
0.0
 46
0.0
 47
0.0
 48
0.0
 49
0.0
140
0.0
141
0.0
142
1.0
143
1.0
 70
   688
 72
     1
 73
     0
 74
     5
  7

 75
    16
147
1.0
 76
     0
 77
     2
 78
   300
148
0.0
149
0.0
100
AcDbLayout
  1
Layout2
 70
     1
 71
     2
 10
0.0
 20
0.0
 11
0.0
 21
0.0
 12
0.0
 22
0.0
 32
0.0
 14
0.0
 24
0.0
 34
0.0
 15
0.0
 25
0.0
 35
0.0
146
0.0
 13
0.0
 23
0.0
 33
0.0
 16
1.0
 26
0.0
 36
0.0
 17
0.0
 27
1.0
 37
0.0
 76
     0
330
23
  0
LAYOUT
  5
22
102
{ACAD_REACTORS
330
1A
102
}
330
1A
100
AcDbPlotSettings
  1

  2
none_device
  4
ANSI_A_(11.00_x_8.50_Inches)
  6

 40
6.349999999999999
 41
19.05
 42
6.350005079999999
 43
19.05000254
 44
279.4
 45
215.9
 46
-24.4982539175
 47
-189.8830947535
 48
0.0
 49
0.0
140
0.0
141
0.0
142
0.055149293
143
1.0
 70
  1696
 72
     0
 73
     0
 74
     0
  7

 75
     0
147
0.0179189148
 76
     0
 77
     2
 78
   300
148
-1300.4909072572
149
0.0
100
AcDbLayout
  1
Model
 70
     1
 71
     0
 10
0.0
 20
0.0
 11
420.0
 21
297.0
 12
0.0
 22
0.0
 32
0.0
 14
13.953
 24
156.72475
 34
0.0
 15
211.417
 25
241.311625
 35
0.0
146
0.0
 13
0.0
 23
0.0
 33
0.0
 16
1.0
 26
0.0
 36
0.0
 17
0.0
 27
1.0
 37
0.0
 76
     0
330
1F
331
29
  0
MATERIAL
  5
A70
102
{ACAD_XDICTIONARY
360
A71
102
}
102
{ACAD_REACTORS
330
A67
102
}
330
A67
100
AcDbMaterial
  1
ByBlock
 72
     0
 43
0.0008202099737533
 43
0.0
 43
0.0
 43
0.0
 43
0.0
 43
0.0008202099737533
 43
0.0
 43
0.0
 43
0.0
 43
0.0
 43
1.0
 43
0.0
 43
0.0
 43
0.0
 43
0.0
 43
1.0
 77
     0
 47
0.0008202099737533
 47
0.0
 47
0.0
 47
0.0
 47
0.0
 47
0.0008202099737533
 47
0.0
 47
0.0
 47
0.0
 47
0.0
 47
1.0
 47
0.0
 47
0.0
 47
0.0
 47
0.0
 47
1.0
171
     0
 49
0.0008202099737533
 49
0.0
 49
0.0
 49
0.0
 49
0.0
 49
0.0008202099737533
 49
0.0
 49
0.0
 49
0.0
 49
0.0
 49
1.0
 49
0.0
 49
0.0
 49
0.0
 49
0.0
 49
1.0
175
     0
142
0.0008202099737533
142
0.0
142
0.0
142
0.0
142
0.0
142
0.0008202099737533
142
0.0
142
0.0
142
0.0
142
0.0
142
1.0
142
0.0
142
0.0
142
0.0
142
0.0
142
1.0
179
     0
144
0.0008202099737533
144
0.0
144
0.0
144
0.0
144
0.0
144
0.0008202099737533
144
0.0
144
0.0
144
0.0
144
0.0
144
1.0
144
0.0
144
0.0
144
0.0
144
0.0
144
1.0
147
0.0008202099737533
147
0.0
147
0.0
147
0.0
147
0.0
147
0.0008202099737533
147
0.0
147
0.0
147
0.0
147
0.0
147
1.0
147
0.0
147
0.0
147
0.0
147
0.0
147
1.0
  0
MATERIAL
  5
A68
102
{ACAD_XDICTIONARY
360
A69
102
}
102
{ACAD_REACTORS
330
A67
102
}
330
A67
100
AcDbMaterial
  1
ByLayer
 72
     0
 43
0.0008202099737533
 43
0.0
 43
0.0
 43
0.0
 43
0.0
 43
0.0008202099737533
 43
0.0
 43
0.0
 43
0.0
 43
0.0
 43
1.0
 43
0.0
 43
0.0
 43
0.0
 43
0.0
 43
1.0
 77
     0
 47
0.0008202099737533
 47
0.0
 47
0.0
 47
0.0
 47
0.0
 47
0.0008202099737533
 47
0.0
 47
0.0
 47
0.0
 47
0.0
 47
1.0
 47
0.0
 47
0.0
 47
0.0
 47
0.0
 47
1.0
171
     0
 49
0.0008202099737533
 49
0.0
 49
0.0
 49
0.0
 49
0.0
 49
0.0008202099737533
 49
0.0
 49
0.0
 49
0.0
 49
0.0
 49
1.0
 49
0.0
 49
0.0
 49
0.0
 49
0.0
 49
1.0
175
     0
142
0.0008202099737533
142
0.0
142
0.0
142
0.0
142
0.0
142
0.0008202099737533
142
0.0
142
0.0
142
0.0
142
0.0
142
1.0
142
0.0
142
0.0
142
0.0
142
0.0
142
1.0
179
     0
144
0.0008202099737533
144
0.0
144
0.0
144
0.0
144
0.0
144
0.0008202099737533
144
0.0
144
0.0
144
0.0
144
0.0
144
1.0
144
0.0
144
0.0
144
0.0
144
0.0
144
1.0
147
0.0008202099737533
147
0.0
147
0.0
147
0.0
147
0.0
147
0.0008202099737533
147
0.0
147
0.0
147
0.0
147
0.0
147
1.0
147
0.0
147
0.0
147
0.0
147
0.0
147
1.0
  0
MATERIAL
  5
A78
102
{ACAD_XDICTIONARY
360
A79
102
}
102
{ACAD_REACTORS
330
A67
102
}
330
A67
100
AcDbMaterial
  1
Global
 72
     0
 43
0.0008202099737533
 43
0.0
 43
0.0
 43
0.0
 43
0.0
 43
0.0008202099737533
 43
0.0
 43
0.0
 43
0.0
 43
0.0
 43
1.0
 43
0.0
 43
0.0
 43
0.0
 43
0.0
 43
1.0
 77
     0
 47
0.0008202099737533
 47
0.0
 47
0.0
 47
0.0
 47
0.0
 47
0.0008202099737533
 47
0.0
 47
0.0
 47
0.0
 47
0.0
 47
1.0
 47
0.0
 47
0.0
 47
0.0
 47
0.0
 47
1.0
171
     0
 49
0.0008202099737533
 49
0.0
 49
0.0
 49
0.0
 49
0.0
 49
0.0008202099737533
 49
0.0
 49
0.0
 49
0.0
 49
0.0
 49
1.0
 49
0.0
 49
0.0
 49
0.0
 49
0.0
 49
1.0
175
     0
142
0.0008202099737533
142
0.0
142
0.0
142
0.0
142
0.0
142
0.0008202099737533
142
0.0
142
0.0
142
0.0
142
0.0
142
1.0
142
0.0
142
0.0
142
0.0
142
0.0
142
1.0
179
     0
144
0.0008202099737533
144
0.0
144
0.0
144
0.0
144
0.0
144
0.0008202099737533
144
0.0
144
0.0
144
0.0
144
0.0
144
1.0
144
0.0
144
0.0
144
0.0
144
0.0
144
1.0
147
0.0008202099737533
147
0.0
147
0.0
147
0.0
147
0.0
147
0.0008202099737533
147
0.0
147
0.0
147
0.0
147
0.0
147
1.0
147
0.0
147
0.0
147
0.0
147
0.0
147
1.0
  0
MLEADERSTYLE
  5
A9D
102
{ACAD_REACTORS
330
A9C
102
}
330
A9C
100
AcDbMLeaderStyle
179
     2
170
     2
171
     1
172
     0
 90
        2
 40
0.0
 41
0.0
173
     1
 91
-1056964608
340
14
 92
       -2
290
     1
 42
2.0
291
     1
 43
0.36
  3
Standard
 44
4.0
300

342
11
174
     1
178
     6
175
     1
176
     0
 93
-1056964608
 45
4.0
292
     0
297
     0
 46
4.0
 94
-1056964608
 47
1.0
 49
1.0
140
1.0
293
     1
141
0.0
294
     1
177
     0
142
1.0
295
     0
296
     0
143
0.125
271
     0
272
     9
273
     9
298
     0
  0
MLINESTYLE
  5
18
102
{ACAD_REACTORS
330
17
102
}
330
17
100
AcDbMlineStyle
  2
STANDARD
 70
     0
  3

 62
   256
 51
90.0
 52
90.0
 71
     2
 49
0.5
 62
   256
  6
BYLAYER
 49
-0.5
 62
   256
  6
BYLAYER
  0
ACDBPLACEHOLDER
  5
F
102
{ACAD_REACTORS
330
E
102
}
330
E
  0
SCALE
  5
48
102
{ACAD_REACTORS
330
47
102
}
330
47
100
AcDbScale
 70
     0
300
1:1
140
1.0
141
1.0
290
     1
  0
SCALE
  5
49
102
{ACAD_REACTORS
330
47
102
}
330
47
100
AcDbScale
 70
     0
300
1:2
140
1.0
141
2.0
290
     0
  0
SCALE
  5
4A
102
{ACAD_REACTORS
330
47
102
}
330
47
100
AcDbScale
 70
     0
300
1:4
140
1.0
141
4.0
290
     0
  0
SCALE
  5
4B
102
{ACAD_REACTORS
330
47
102
}
330
47
100
AcDbScale
 70
     0
300
1:5
140
1.0
141
5.0
290
     0
  0
SCALE
  5
4C
102
{ACAD_REACTORS
330
47
102
}
330
47
100
AcDbScale
 70
     0
300
1:8
140
1.0
141
8.0
290
     0
  0
SCALE
  5
4D
102
{ACAD_REACTORS
330
47
102
}
330
47
100
AcDbScale
 70
     0
300
1:10
140
1.0
141
10.0
290
     0
  0
SCALE
  5
4E
102
{ACAD_REACTORS
330
47
102
}
330
47
100
AcDbScale
 70
     0
300
1:16
140
1.0
141
16.0
290
     0
  0
SCALE
  5
4F
102
{ACAD_REACTORS
330
47
102
}
330
47
100
AcDbScale
 70
     0
300
1:20
140
1.0
141
20.0
290
     0
  0
SCALE
  5
50
102
{ACAD_REACTORS
330
47
102
}
330
47
100
AcDbScale
 70
     0
300
1:30
140
1.0
141
30.0
290
     0
  0
SCALE
  5
51
102
{ACAD_REACTORS
330
47
102
}
330
47
100
AcDbScale
 70
     0
300
1:40
140
1.0
141
40.0
290
     0
  0
SCALE
  5
52
102
{ACAD_REACTORS
330
47
102
}
330
47
100
AcDbScale
 70
     0
300
1:50
140
1.0
141
50.0
290
     0
  0
SCALE
  5
53
102
{ACAD_REACTORS
330
47
102
}
330
47
100
AcDbScale
 70
     0
300
1:100
140
1.0
141
100.0
290
     0
  0
SCALE
  5
54
102
{ACAD_REACTORS
330
47
102
}
330
47
100
AcDbScale
 70
     0
300
2:1
140
2.0
141
1.0
290
     0
  0
SCALE
  5
55
102
{ACAD_REACTORS
330
47
102
}
330
47
100
AcDbScale
 70
     0
300
4:1
140
4.0
141
1.0
290
     0
  0
SCALE
  5
56
102
{ACAD_REACTORS
330
47
102
}
330
47
100
AcDbScale
 70
     0
300
8:1
140
8.0
141
1.0
290
     0
  0
SCALE
  5
57
102
{ACAD_REACTORS
330
47
102
}
330
47
100
AcDbScale
 70
     0
300
10:1
140
10.0
141
1.0
290
     0
  0
SCALE
  5
58
102
{ACAD_REACTORS
330
47
102
}
330
47
100
AcDbScale
 70
     0
300
100:1
140
100.0
141
1.0
290
     0
  0
SCALE
  5
59
102
{ACAD_REACTORS
330
47
102
}
330
47
100
AcDbScale
 70
     0
300
1/128" = 1'-0"
140
0.0078125
141
12.0
290
     0
  0
SCALE
  5
5A
102
{ACAD_REACTORS
330
47
102
}
330
47
100
AcDbScale
 70
     0
300
1/64" = 1'-0"
140
0.015625
141
12.0
290
     0
  0
SCALE
  5
5B
102
{ACAD_REACTORS
330
47
102
}
330
47
100
AcDbScale
 70
     0
300
1/32" = 1'-0"
140
0.03125
141
12.0
290
     0
  0
SCALE
  5
5C
102
{ACAD_REACTORS
330
47
102
}
330
47
100
AcDbScale
 70
     0
300
1/16" = 1'-0"
140
0.0625
141
12.0
290
     0
  0
SCALE
  5
5D
102
{ACAD_REACTORS
330
47
102
}
330
47
100
AcDbScale
 70
     0
300
3/32" = 1'-0"
140
0.09375
141
12.0
290
     0
  0
SCALE
  5
5E
102
{ACAD_REACTORS
330
47
102
}
330
47
100
AcDbScale
 70
     0
300
1/8" = 1'-0"
140
0.125
141
12.0
290
     0
  0
SCALE
  5
5F
102
{ACAD_REACTORS
330
47
102
}
330
47
100
AcDbScale
 70
     0
300
3/16" = 1'-0"
140
0.1875
141
12.0
290
     0
  0
SCALE
  5
60
102
{ACAD_REACTORS
330
47
102
}
330
47
100
AcDbScale
 70
     0
300
1/4" = 1'-0"
140
0.25
141
12.0
290
     0
  0
SCALE
  5
61
102
{ACAD_REACTORS
330
47
102
}
330
47
100
AcDbScale
 70
     0
300
3/8" = 1'-0"
140
0.375
141
12.0
290
     0
  0
SCALE
  5
62
102
{ACAD_REACTORS
330
47
102
}
330
47
100
AcDbScale
 70
     0
300
1/2" = 1'-0"
140
0.5
141
12.0
290
     0
  0
SCALE
  5
63
102
{ACAD_REACTORS
330
47
102
}
330
47
100
AcDbScale
 70
     0
300
3/4" = 1'-0"
140
0.75
141
12.0
290
     0
  0
SCALE
  5
64
102
{ACAD_REACTORS
330
47
102
}
330
47
100
AcDbScale
 70
     0
300
1" = 1'-0"
140
1.0
141
12.0
290
     0
  0
SCALE
  5
65
102
{ACAD_REACTORS
330
47
102
}
330
47
100
AcDbScale
 70
     0
300
1-1/2" = 1'-0"
140
1.5
141
12.0
290
     0
  0
SCALE
  5
66
102
{ACAD_REACTORS
330
47
102
}
330
47
100
AcDbScale
 70
     0
300
3" = 1'-0"
140
3.0
141
12.0
290
     0
  0
SCALE
  5
67
102
{ACAD_REACTORS
330
47
102
}
330
47
100
AcDbScale
 70
     0
300
6" = 1'-0"
140
6.0
141
12.0
290
     0
  0
SCALE
  5
68
102
{ACAD_REACTORS
330
47
102
}
330
47
100
AcDbScale
 70
     0
300
1'-0" = 1'-0"
140
12.0
141
12.0
290
     0
  0
ACDBSECTIONVIEWSTYLE
  5
A9F
102
{ACAD_XDICTIONARY
360
AF9
102
}
102
{ACAD_REACTORS
330
A9E
102
}
330
A9E
100
AcDbModelDocViewStyle
 70
     0
  3
Metric50
290
     0
100
AcDbSectionViewStyle
 70
     0
 71
     0
 90
      102
 71
     1
340
11
 62
   256
 40
5.0
340
0
340
0
 62
   256
 40
5.0
300
I, O, Q, S, X, Z
 40
10.0
 90
        0
 40
2.5
 90
        0
 71
     2
340
16
 90
       25
 62
   256
340
16
 90
       50
 62
   256
 40
5.0
 40
2.5
 40
5.0
 71
     3
340
11
 62
   256
 40
5.0
 90
        0
 40
15.0
 90
        1
300
%<\AcVar ViewSectionStartId>%-%<\AcVar ViewSectionEndId>% (%<\AcVar ViewScale \f "%sn">%)
 71
     4
 62
   256
 62
   257
300
ANSI31
 40
1.0
 90
        0
290
     0
290
     0
 90
        6
 40
0.0
 40
1.570796326794896
 40
0.2617993877991494
 40
1.308996938995747
 40
-0.2617993877991494
 40
1.832595714594046
  0
TABLESTYLE
  5
A9B
102
{ACAD_XDICTIONARY
360
AF7
102
}
102
{ACAD_REACTORS
330
A9A
102
}
330
A9A
100
AcDbTableStyle
280
     0
  3
Standard
 70
     0
 71
     0
 40
1.5
 41
1.5
280
     0
281
     0
  7
Standard
140
4.5
170
     2
 62
     0
 63
     7
283
     0
 90
      512
 91
        0
  1

274
    -2
284
     1
 64
     0
275
    -2
285
     1
 65
     0
276
    -2
286
     1
 66
     0
277
    -2
287
     1
 67
     0
278
    -2
288
     1
 68
     0
279
    -2
289
     1
 69
     0
  7
Standard
140
6.0
170
     5
 62
     0
 63
     7
283
     0
 90
      512
 91
        0
  1

274
    -2
284
     1
 64
     0
275
    -2
285
     1
 65
     0
276
    -2
286
     1
 66
     0
277
    -2
287
     1
 67
     0
278
    -2
288
     1
 68
     0
279
    -2
289
     1
 69
     0
  7
Standard
140
4.5
170
     5
 62
     0
 63
     7
283
     0
 90
      512
 91
        0
  1

274
    -2
284
     1
 64
     0
275
    -2
285
     1
 65
     0
276
    -2
286
     1
 66
     0
277
    -2
287
     1
 67
     0
278
    -2
288
     1
 68
     0
279
    -2
289
     1
 69
     0
  0
VISUALSTYLE
  5
A86
102
{ACAD_REACTORS
330
A80
102
}
330
A80
100
AcDbVisualStyle
  2
2dWireframe
 70
     4
177
     3
291
     0
 70
    58
 90
        0
176
     1
 90
        2
176
     1
 90
        0
176
     1
 90
        0
176
     1
 40
0.6
176
     1
 40
30.0
176
     1
 62
     7
420
 16777215
176
     1
 90
        1
176
     1
 90
        4
176
     1
 62
     7
176
     1
 62
   257
176
     1
 90
        1
176
     1
 90
        1
176
     1
 40
1.0
176
     1
 90
        0
176
     1
 62
   257
176
     1
 40
1.0
176
     1
 90
        1
176
     1
 90
        6
176
     1
 90
        2
176
     1
 62
     7
176
     1
 90
        5
176
     1
 90
        0
176
     1
 90
        0
176
     1
290
     0
176
     1
 90
        1
176
     1
 40
0.0
176
     1
 90
        0
176
     1
290
     1
176
     1
290
     1
176
     1
290
     0
176
     1
290
     0
176
     1
290
     0
176
     1
290
     0
176
     1
290
     0
176
     1
290
     0
176
     1
290
     0
176
     1
 90
       50
176
     1
 40
0.0
176
     1
 40
1.0
176
     1
 90
        0
176
     1
 62
    18
420
        0
176
     1
 90
       50
176
     1
 90
        3
176
     1
 62
     5
420
      255
176
     1
290
     0
176
     1
 90
       50
176
     1
 90
       50
176
     1
 90
       50
176
     1
290
     0
176
     1
 90
       50
176
     1
 62
   256
176
     0
 40
1.0
176
     0
 90
        2
176
     1
  1
strokes_ogs.tif
176
     1
290
     0
176
     1
 40
1.0
176
     1
 40
1.0
176
     1
  0
VISUALSTYLE
  5
A85
102
{ACAD_REACTORS
330
A80
102
}
330
A80
100
AcDbVisualStyle
  2
Basic
 70
     7
177
     3
291
     1
 70
    58
 90
        1
176
     1
 90
        0
176
     1
 90
        1
176
     1
 90
        0
176
     1
 40
0.6
176
     1
 40
30.0
176
     1
 62
     7
420
 16777215
176
     1
 90
        0
176
     1
 90
        4
176
     1
 62
     7
176
     1
 62
   257
176
     1
 90
        1
176
     1
 90
        1
176
     1
 40
1.0
176
     1
 90
        8
176
     1
 62
     7
176
     1
 40
1.0
176
     1
 90
        1
176
     1
 90
        6
176
     1
 90
        2
176
     1
 62
     7
176
     1
 90
        5
176
     1
 90
        0
176
     1
 90
        0
176
     1
290
     0
176
     1
 90
        1
176
     1
 40
0.0
176
     1
 90
        0
176
     1
290
     0
176
     1
290
     1
176
     1
290
     1
176
     1
290
     0
176
     1
290
     0
176
     1
290
     0
176
     1
290
     0
176
     1
290
     0
176
     1
290
     0
176
     1
 90
       50
176
     1
 40
0.0
176
     1
 40
1.0
176
     1
 90
        0
176
     1
 62
    18
420
        0
176
     1
 90
       50
176
     1
 90
        3
176
     1
 62
     5
420
      255
176
     1
290
     0
176
     1
 90
       50
176
     1
 90
       50
176
     1
 90
       50
176
     1
290
     0
176
     1
 90
       50
176
     1
 62
   256
176
     0
 40
1.0
176
     0
 90
        2
176
     1
  1
strokes_ogs.tif
176
     1
290
     0
176
     1
 40
1.0
176
     1
 40
1.0
176
     1
  0
VISUALSTYLE
  5
A8C
102
{ACAD_REACTORS
330
A80
102
}
330
A80
100
AcDbVisualStyle
  2
Brighten
 70
    12
177
     3
291
     1
 70
    58
 90
        2
176
     1
 90
        2
176
     1
 90
        0
176
     1
 90
        0
176
     1
 40
0.6
176
     1
 40
30.0
176
     1
 62
     7
420
 16777215
176
     1
 90
        1
176
     1
 90
        4
176
     1
 62
     7
176
     1
 62
   257
176
     1
 90
        1
176
     1
 90
        1
176
     1
 40
1.0
176
     1
 90
        8
176
     1
 62
     7
176
     1
 40
1.0
176
     1
 90
        1
176
     1
 90
        6
176
     1
 90
        2
176
     1
 62
     7
176
     1
 90
        5
176
     1
 90
        0
176
     1
 90
        0
176
     1
290
     0
176
     1
 90
        1
176
     1
 40
50.0
176
     1
 90
        0
176
     1
290
     0
176
     1
290
     1
176
     1
290
     1
176
     1
290
     0
176
     1
290
     0
176
     1
290
     0
176
     1
290
     0
176
     1
290
     0
176
     1
290
     0
176
     1
 90
       50
176
     1
 40
0.0
176
     1
 40
1.0
176
     1
 90
        0
176
     1
 62
    18
420
        0
176
     1
 90
       50
176
     1
 90
        3
176
     1
 62
     5
420
      255
176
     1
290
     0
176
     1
 90
       50
176
     1
 90
       50
176
     1
 90
       50
176
     1
290
     0
176
     1
 90
       50
176
     1
 62
   256
176
     0
 40
1.0
176
     0
 90
        2
176
     1
  1
strokes_ogs.tif
176
     1
290
     0
176
     1
 40
1.0
176
     1
 40
1.0
176
     1
  0
VISUALSTYLE
  5
A90
102
{ACAD_REACTORS
330
A80
102
}
330
A80
100
AcDbVisualStyle
  2
ColorChange
 70
    16
177
     3
291
     1
 70
    58
 90
        2
176
     1
 90
        2
176
     1
 90
        3
176
     1
 90
        0
176
     1
 40
0.6
176
     1
 40
30.0
176
     1
 62
     8
420
  8421504
176
     1
 90
        1
176
     1
 90
        4
176
     1
 62
     7
176
     1
 62
   257
176
     1
 90
        1
176
     1
 90
        1
176
     1
 40
1.0
176
     1
 90
        8
176
     1
 62
     8
420
  8421504
176
     1
 40
1.0
176
     1
 90
        1
176
     1
 90
        6
176
     1
 90
        2
176
     1
 62
     7
176
     1
 90
        5
176
     1
 90
        0
176
     1
 90
        0
176
     1
290
     0
176
     1
 90
        1
176
     1
 40
0.0
176
     1
 90
        0
176
     1
290
     0
176
     1
290
     1
176
     1
290
     1
176
     1
290
     0
176
     1
290
     0
176
     1
290
     0
176
     1
290
     0
176
     1
290
     0
176
     1
290
     0
176
     1
 90
       50
176
     1
 40
0.0
176
     1
 40
1.0
176
     1
 90
        0
176
     1
 62
    18
420
        0
176
     1
 90
       50
176
     1
 90
        3
176
     1
 62
     5
420
      255
176
     1
290
     0
176
     1
 90
       50
176
     1
 90
       50
176
     1
 90
       50
176
     1
290
     0
176
     1
 90
       50
176
     1
 62
   256
176
     0
 40
1.0
176
     0
 90
        2
176
     1
  1
strokes_ogs.tif
176
     1
290
     0
176
     1
 40
1.0
176
     1
 40
1.0
176
     1
  0
VISUALSTYLE
  5
A89
102
{ACAD_REACTORS
330
A80
102
}
330
A80
100
AcDbVisualStyle
  2
Conceptual
 70
     9
177
     3
291
     0
 70
    58
 90
        3
176
     1
 90
        2
176
     1
 90
        0
176
     1
 90
        0
176
     1
 40
0.6
176
     1
 40
30.0
176
     1
 62
     7
420
 16777215
176
     1
 90
        2
176
     1
 90
        2
176
     1
 62
     7
176
     1
 62
   257
176
     1
 90
        1
176
     1
 90
        1
176
     1
 40
179.0
176
     1
 90
        8
176
     1
 62
     7
176
     1
 40
1.0
176
     1
 90
        1
176
     1
 90
        6
176
     1
 90
        2
176
     1
 62
     7
176
     1
 90
        3
176
     1
 90
        0
176
     1
 90
        0
176
     1
290
     0
176
     1
 90
        1
176
     1
 40
0.0
176
     1
 90
        0
176
     1
290
     0
176
     1
290
     1
176
     1
290
     1
176
     1
290
     0
176
     1
290
     0
176
     1
290
     0
176
     1
290
     0
176
     1
290
     0
176
     1
290
     0
176
     1
 90
       50
176
     1
 40
0.0
176
     1
 40
1.0
176
     1
 90
        0
176
     1
 62
    18
420
        0
176
     1
 90
       50
176
     1
 90
        3
176
     1
 62
     5
420
      255
176
     1
290
     0
176
     1
 90
       50
176
     1
 90
       50
176
     1
 90
       50
176
     1
290
     0
176
     1
 90
       50
176
     1
 62
   256
176
     0
 40
1.0
176
     0
 90
        2
176
     1
  1
strokes_ogs.tif
176
     1
290
     0
176
     1
 40
1.0
176
     1
 40
1.0
176
     1
  0
VISUALSTYLE
  5
A8B
102
{ACAD_REACTORS
330
A80
102
}
330
A80
100
AcDbVisualStyle
  2
Dim
 70
    11
177
     3
291
     1
 70
    58
 90
        2
176
     1
 90
        2
176
     1
 90
        0
176
     1
 90
        0
176
     1
 40
0.6
176
     1
 40
30.0
176
     1
 62
     7
420
 16777215
176
     1
 90
        1
176
     1
 90
        4
176
     1
 62
     7
176
     1
 62
   257
176
     1
 90
        1
176
     1
 90
        1
176
     1
 40
1.0
176
     1
 90
        8
176
     1
 62
     7
176
     1
 40
1.0
176
     1
 90
        1
176
     1
 90
        6
176
     1
 90
        2
176
     1
 62
     7
176
     1
 90
        5
176
     1
 90
        0
176
     1
 90
        0
176
     1
290
     0
176
     1
 90
        1
176
     1
 40
-50.0
176
     1
 90
        0
176
     1
290
     0
176
     1
290
     1
176
     1
290
     1
176
     1
290
     0
176
     1
290
     0
176
     1
290
     0
176
     1
290
     0
176
     1
290
     0
176
     1
290
     0
176
     1
 90
       50
176
     1
 40
0.0
176
     1
 40
1.0
176
     1
 90
        0
176
     1
 62
    18
420
        0
176
     1
 90
       50
176
     1
 90
        3
176
     1
 62
     5
420
      255
176
     1
290
     0
176
     1
 90
       50
176
     1
 90
       50
176
     1
 90
       50
176
     1
290
     0
176
     1
 90
       50
176
     1
 62
   256
176
     0
 40
1.0
176
     0
 90
        2
176
     1
  1
strokes_ogs.tif
176
     1
290
     0
176
     1
 40
1.0
176
     1
 40
1.0
176
     1
  0
VISUALSTYLE
  5
A98
102
{ACAD_REACTORS
330
A80
102
}
330
A80
100
AcDbVisualStyle
  2
EdgeColorOff
 70
    22
177
     3
291
     1
 70
    58
 90
        2
176
     0
 90
        2
176
     0
 90
        0
176
     0
 90
        0
176
     0
 40
0.6
176
     0
 40
30.0
176
     0
 62
     7
420
 16777215
176
     0
 90
        1
176
     0
 90
        4
176
     0
 62
     7
176
     0
 62
   257
176
     0
 90
        1
176
     0
 90
        1
176
     0
 40
1.0
176
     0
 90
        8
176
     2
 62
     7
176
     0
 40
1.0
176
     0
 90
        1
176
     0
 90
        6
176
     0
 90
        2
176
     0
 62
     7
176
     0
 90
        5
176
     0
 90
        0
176
     0
 90
        0
176
     0
290
     0
176
     0
 90
        1
176
     0
 40
0.0
176
     0
 90
        0
176
     0
290
     0
176
     1
290
     1
176
     1
290
     1
176
     1
290
     0
176
     1
290
     0
176
     1
290
     0
176
     1
290
     0
176
     1
290
     0
176
     1
290
     0
176
     1
 90
       50
176
     0
 40
0.0
176
     0
 40
1.0
176
     0
 90
        0
176
     0
 62
    18
420
        0
176
     0
 90
       50
176
     0
 90
        3
176
     0
 62
     5
420
      255
176
     0
290
     0
176
     1
 90
       50
176
     0
 90
       50
176
     0
 90
       50
176
     0
290
     0
176
     1
 90
       50
176
     0
 62
   256
176
     0
 40
1.0
176
     0
 90
        2
176
     0
  1
strokes_ogs.tif
176
     0
290
     0
176
     1
 40
1.0
176
     0
 40
1.0
176
     0
  0
VISUALSTYLE
  5
A8F
102
{ACAD_REACTORS
330
A80
102
}
330
A80
100
AcDbVisualStyle
  2
Facepattern
 70
    15
177
     3
291
     1
 70
    58
 90
        2
176
     1
 90
        2
176
     1
 90
        0
176
     1
 90
        0
176
     1
 40
0.6
176
     1
 40
30.0
176
     1
 62
     7
420
 16777215
176
     1
 90
        1
176
     1
 90
        4
176
     1
 62
     7
176
     1
 62
   257
176
     1
 90
        1
176
     1
 90
        1
176
     1
 40
1.0
176
     1
 90
        8
176
     1
 62
     7
176
     1
 40
1.0
176
     1
 90
        1
176
     1
 90
        6
176
     1
 90
        2
176
     1
 62
     7
176
     1
 90
        5
176
     1
 90
        0
176
     1
 90
        0
176
     1
290
     0
176
     1
 90
        1
176
     1
 40
0.0
176
     1
 90
        0
176
     1
290
     0
176
     1
290
     1
176
     1
290
     1
176
     1
290
     0
176
     1
290
     0
176
     1
290
     0
176
     1
290
     0
176
     1
290
     0
176
     1
290
     0
176
     1
 90
       50
176
     1
 40
0.0
176
     1
 40
1.0
176
     1
 90
        0
176
     1
 62
    18
420
        0
176
     1
 90
       50
176
     1
 90
        3
176
     1
 62
     5
420
      255
176
     1
290
     0
176
     1
 90
       50
176
     1
 90
       50
176
     1
 90
       50
176
     1
290
     0
176
     1
 90
       50
176
     1
 62
   256
176
     0
 40
1.0
176
     0
 90
        2
176
     1
  1
strokes_ogs.tif
176
     1
290
     0
176
     1
 40
1.0
176
     1
 40
1.0
176
     1
  0
VISUALSTYLE
  5
A81
102
{ACAD_REACTORS
330
A80
102
}
330
A80
100
AcDbVisualStyle
  2
Flat
 70
     0
177
     3
291
     1
 70
    58
 90
        2
176
     1
 90
        1
176
     1
 90
        1
176
     1
 90
        2
176
     1
 40
0.6
176
     1
 40
30.0
176
     1
 62
     7
420
 16777215
176
     1
 90
        0
176
     1
 90
        0
176
     1
 62
     7
176
     1
 62
   257
176
     1
 90
        1
176
     1
 90
        1
176
     1
 40
1.0
176
     1
 90
        8
176
     1
 62
     7
176
     1
 40
1.0
176
     1
 90
        1
176
     1
 90
        6
176
     1
 90
        2
176
     1
 62
     7
176
     1
 90
        5
176
     1
 90
        0
176
     1
 90
        0
176
     1
290
     0
176
     1
 90
       13
176
     1
 40
0.0
176
     1
 90
        0
176
     1
290
     0
176
     1
290
     1
176
     1
290
     1
176
     1
290
     0
176
     1
290
     0
176
     1
290
     0
176
     1
290
     0
176
     1
290
     0
176
     1
290
     0
176
     1
 90
       50
176
     1
 40
0.0
176
     1
 40
1.0
176
     1
 90
        0
176
     1
 62
    18
420
        0
176
     1
 90
       50
176
     1
 90
        3
176
     1
 62
     5
420
      255
176
     1
290
     0
176
     1
 90
       50
176
     1
 90
       50
176
     1
 90
       50
176
     1
290
     0
176
     1
 90
       50
176
     1
 62
   256
176
     0
 40
1.0
176
     0
 90
        2
176
     1
  1
strokes_ogs.tif
176
     1
290
     0
176
     1
 40
1.0
176
     1
 40
1.0
176
     1
  0
VISUALSTYLE
  5
A82
102
{ACAD_REACTORS
330
A80
102
}
330
A80
100
AcDbVisualStyle
  2
FlatWithEdges
 70
     1
177
     3
291
     1
 70
    58
 90
        2
176
     1
 90
        1
176
     1
 90
        1
176
     1
 90
        2
176
     1
 40
0.6
176
     1
 40
30.0
176
     1
 62
     7
420
 16777215
176
     1
 90
        1
176
     1
 90
        0
176
     1
 62
     7
176
     1
 62
   257
176
     1
 90
        1
176
     1
 90
        1
176
     1
 40
1.0
176
     1
 90
        0
176
     1
 62
   257
176
     1
 40
1.0
176
     1
 90
        1
176
     1
 90
        6
176
     1
 90
        2
176
     1
 62
     7
176
     1
 90
        5
176
     1
 90
        0
176
     1
 90
        0
176
     1
290
     0
176
     1
 90
       13
176
     1
 40
0.0
176
     1
 90
        0
176
     1
290
     0
176
     1
290
     1
176
     1
290
     1
176
     1
290
     0
176
     1
290
     0
176
     1
290
     0
176
     1
290
     0
176
     1
290
     0
176
     1
290
     0
176
     1
 90
       50
176
     1
 40
0.0
176
     1
 40
1.0
176
     1
 90
        0
176
     1
 62
    18
420
        0
176
     1
 90
       50
176
     1
 90
        3
176
     1
 62
     5
420
      255
176
     1
290
     0
176
     1
 90
       50
176
     1
 90
       50
176
     1
 90
       50
176
     1
290
     0
176
     1
 90
       50
176
     1
 62
   256
176
     0
 40
1.0
176
     0
 90
        2
176
     1
  1
strokes_ogs.tif
176
     1
290
     0
176
     1
 40
1.0
176
     1
 40
1.0
176
     1
  0
VISUALSTYLE
  5
A83
102
{ACAD_REACTORS
330
A80
102
}
330
A80
100
AcDbVisualStyle
  2
Gouraud
 70
     2
177
     3
291
     1
 70
    58
 90
        2
176
     1
 90
        2
176
     1
 90
        1
176
     1
 90
        2
176
     1
 40
0.6
176
     1
 40
30.0
176
     1
 62
     7
420
 16777215
176
     1
 90
        0
176
     1
 90
        0
176
     1
 62
     7
176
     1
 62
   257
176
     1
 90
        1
176
     1
 90
        1
176
     1
 40
1.0
176
     1
 90
        0
176
     1
 62
     7
176
     1
 40
1.0
176
     1
 90
        1
176
     1
 90
        6
176
     1
 90
        2
176
     1
 62
     7
176
     1
 90
        5
176
     1
 90
        0
176
     1
 90
        0
176
     1
290
     0
176
     1
 90
       13
176
     1
 40
0.0
176
     1
 90
        0
176
     1
290
     0
176
     1
290
     1
176
     1
290
     1
176
     1
290
     0
176
     1
290
     0
176
     1
290
     0
176
     1
290
     0
176
     1
290
     0
176
     1
290
     0
176
     1
 90
       50
176
     1
 40
0.0
176
     1
 40
1.0
176
     1
 90
        0
176
     1
 62
    18
420
        0
176
     1
 90
       50
176
     1
 90
        3
176
     1
 62
     5
420
      255
176
     1
290
     0
176
     1
 90
       50
176
     1
 90
       50
176
     1
 90
       50
176
     1
290
     0
176
     1
 90
       50
176
     1
 62
   256
176
     0
 40
1.0
176
     0
 90
        2
176
     1
  1
strokes_ogs.tif
176
     1
290
     0
176
     1
 40
1.0
176
     1
 40
1.0
176
     1
  0
VISUALSTYLE
  5
A84
102
{ACAD_REACTORS
330
A80
102
}
330
A80
100
AcDbVisualStyle
  2
GouraudWithEdges
 70
     3
177
     3
291
     1
 70
    58
 90
        2
176
     1
 90
        2
176
     1
 90
        1
176
     1
 90
        2
176
     1
 40
0.6
176
     1
 40
30.0
176
     1
 62
     7
420
 16777215
176
     1
 90
        1
176
     1
 90
        0
176
     1
 62
     7
176
     1
 62
   257
176
     1
 90
        1
176
     1
 90
        1
176
     1
 40
1.0
176
     1
 90
        0
176
     1
 62
   257
176
     1
 40
1.0
176
     1
 90
        1
176
     1
 90
        6
176
     1
 90
        2
176
     1
 62
     7
176
     1
 90
        5
176
     1
 90
        0
176
     1
 90
        0
176
     1
290
     0
176
     1
 90
       13
176
     1
 40
0.0
176
     1
 90
        0
176
     1
290
     0
176
     1
290
     1
176
     1
290
     1
176
     1
290
     0
176
     1
290
     0
176
     1
290
     0
176
     1
290
     0
176
     1
290
     0
176
     1
290
     0
176
     1
 90
       50
176
     1
 40
0.0
176
     1
 40
1.0
176
     1
 90
        0
176
     1
 62
    18
420
        0
176
     1
 90
       50
176
     1
 90
        3
176
     1
 62
     5
420
      255
176
     1
290
     0
176
     1
 90
       50
176
     1
 90
       50
176
     1
 90
       50
176
     1
290
     0
176
     1
 90
       50
176
     1
 62
   256
176
     0
 40
1.0
176
     0
 90
        2
176
     1
  1
strokes_ogs.tif
176
     1
290
     0
176
     1
 40
1.0
176
     1
 40
1.0
176
     1
  0
VISUALSTYLE
  5
A88
102
{ACAD_REACTORS
330
A80
102
}
330
A80
100
AcDbVisualStyle
  2
Hidden
 70
     6
177
     3
291
     0
 70
    58
 90
        1
176
     1
 90
        2
176
     1
 90
        2
176
     1
 90
        0
176
     1
 40
0.6
176
     1
 40
30.0
176
     1
 62
     7
420
 16777215
176
     1
 90
        2
176
     1
 90
        2
176
     1
 62
     7
176
     1
 62
   257
176
     1
 90
        2
176
     1
 90
        1
176
     1
 40
40.0
176
     1
 90
        0
176
     1
 62
   257
176
     1
 40
1.0
176
     1
 90
        1
176
     1
 90
        6
176
     1
 90
        2
176
     1
 62
     7
176
     1
 90
        3
176
     1
 90
        0
176
     1
 90
        0
176
     1
290
     0
176
     1
 90
        1
176
     1
 40
0.0
176
     1
 90
        0
176
     1
290
     0
176
     1
290
     1
176
     1
290
     1
176
     1
290
     0
176
     1
290
     0
176
     1
290
     0
176
     1
290
     0
176
     1
290
     0
176
     1
290
     0
176
     1
 90
       50
176
     1
 40
0.0
176
     1
 40
1.0
176
     1
 90
        0
176
     1
 62
    18
420
        0
176
     1
 90
       50
176
     1
 90
        3
176
     1
 62
     5
420
      255
176
     1
290
     0
176
     1
 90
       50
176
     1
 90
       50
176
     1
 90
       50
176
     1
290
     0
176
     1
 90
       50
176
     1
 62
   256
176
     0
 40
1.0
176
     0
 90
        2
176
     1
  1
strokes_ogs.tif
176
     1
290
     0
176
     1
 40
1.0
176
     1
 40
1.0
176
     1
  0
VISUALSTYLE
  5
A96
102
{ACAD_REACTORS
330
A80
102
}
330
A80
100
AcDbVisualStyle
  2
JitterOff
 70
    20
177
     3
291
     1
 70
    58
 90
        2
176
     0
 90
        2
176
     0
 90
        0
176
     0
 90
        0
176
     0
 40
0.6
176
     0
 40
30.0
176
     0
 62
     7
420
 16777215
176
     0
 90
        1
176
     0
 90
        4
176
     0
 62
     7
176
     0
 62
   257
176
     0
 90
        1
176
     0
 90
        1
176
     0
 40
1.0
176
     0
 90
       10
176
     2
 62
     7
176
     0
 40
1.0
176
     0
 90
        1
176
     0
 90
        6
176
     0
 90
        2
176
     0
 62
     7
176
     0
 90
        5
176
     0
 90
        0
176
     0
 90
        0
176
     0
290
     0
176
     0
 90
        1
176
     0
 40
0.0
176
     0
 90
        0
176
     0
290
     0
176
     1
290
     1
176
     1
290
     1
176
     1
290
     0
176
     1
290
     0
176
     1
290
     0
176
     1
290
     0
176
     1
290
     0
176
     1
290
     0
176
     1
 90
       50
176
     0
 40
0.0
176
     0
 40
1.0
176
     0
 90
        0
176
     0
 62
    18
420
        0
176
     0
 90
       50
176
     0
 90
        3
176
     0
 62
     5
420
      255
176
     0
290
     0
176
     1
 90
       50
176
     0
 90
       50
176
     0
 90
       50
176
     0
290
     0
176
     1
 90
       50
176
     0
 62
   256
176
     0
 40
1.0
176
     0
 90
        2
176
     0
  1
strokes_ogs.tif
176
     0
290
     0
176
     1
 40
1.0
176
     0
 40
1.0
176
     0
  0
VISUALSTYLE
  5
A8E
102
{ACAD_REACTORS
330
A80
102
}
330
A80
100
AcDbVisualStyle
  2
Linepattern
 70
    14
177
     3
291
     1
 70
    58
 90
        2
176
     1
 90
        2
176
     1
 90
        0
176
     1
 90
        0
176
     1
 40
0.6
176
     1
 40
30.0
176
     1
 62
     7
420
 16777215
176
     1
 90
        1
176
     1
 90
        4
176
     1
 62
     7
176
     1
 62
   257
176
     1
 90
        7
176
     1
 90
        7
176
     1
 40
1.0
176
     1
 90
        8
176
     1
 62
     7
176
     1
 40
1.0
176
     1
 90
        1
176
     1
 90
        6
176
     1
 90
        2
176
     1
 62
     7
176
     1
 90
        5
176
     1
 90
        0
176
     1
 90
        0
176
     1
290
     0
176
     1
 90
        1
176
     1
 40
0.0
176
     1
 90
        0
176
     1
290
     0
176
     1
290
     1
176
     1
290
     1
176
     1
290
     0
176
     1
290
     0
176
     1
290
     0
176
     1
290
     0
176
     1
290
     0
176
     1
290
     0
176
     1
 90
       50
176
     1
 40
0.0
176
     1
 40
1.0
176
     1
 90
        0
176
     1
 62
    18
420
        0
176
     1
 90
       50
176
     1
 90
        3
176
     1
 62
     5
420
      255
176
     1
290
     0
176
     1
 90
       50
176
     1
 90
       50
176
     1
 90
       50
176
     1
290
     0
176
     1
 90
       50
176
     1
 62
   256
176
     0
 40
1.0
176
     0
 90
        2
176
     1
  1
strokes_ogs.tif
176
     1
290
     0
176
     1
 40
1.0
176
     1
 40
1.0
176
     1
  0
VISUALSTYLE
  5
A97
102
{ACAD_REACTORS
330
A80
102
}
330
A80
100
AcDbVisualStyle
  2
OverhangOff
 70
    21
177
     3
291
     1
 70
    58
 90
        2
176
     0
 90
        2
176
     0
 90
        0
176
     0
 90
        0
176
     0
 40
0.6
176
     0
 40
30.0
176
     0
 62
     7
420
 16777215
176
     0
 90
        1
176
     0
 90
        4
176
     0
 62
     7
176
     0
 62
   257
176
     0
 90
        1
176
     0
 90
        1
176
     0
 40
1.0
176
     0
 90
        9
176
     2
 62
     7
176
     0
 40
1.0
176
     0
 90
        1
176
     0
 90
        6
176
     0
 90
        2
176
     0
 62
     7
176
     0
 90
        5
176
     0
 90
        0
176
     0
 90
        0
176
     0
290
     0
176
     0
 90
        1
176
     0
 40
0.0
176
     0
 90
        0
176
     0
290
     0
176
     1
290
     1
176
     1
290
     1
176
     1
290
     0
176
     1
290
     0
176
     1
290
     0
176
     1
290
     0
176
     1
290
     0
176
     1
290
     0
176
     1
 90
       50
176
     0
 40
0.0
176
     0
 40
1.0
176
     0
 90
        0
176
     0
 62
    18
420
        0
176
     0
 90
       50
176
     0
 90
        3
176
     0
 62
     5
420
      255
176
     0
290
     0
176
     1
 90
       50
176
     0
 90
       50
176
     0
 90
       50
176
     0
290
     0
176
     1
 90
       50
176
     0
 62
   256
176
     0
 40
1.0
176
     0
 90
        2
176
     0
  1
strokes_ogs.tif
176
     0
290
     0
176
     1
 40
1.0
176
     0
 40
1.0
176
     0
  0
VISUALSTYLE
  5
A8A
102
{ACAD_REACTORS
330
A80
102
}
330
A80
100
AcDbVisualStyle
  2
Realistic
 70
     8
177
     3
291
     0
 70
    58
 90
        2
176
     1
 90
        3
176
     1
 90
        0
176
     1
 90
        2
176
     1
 40
0.6
176
     1
 40
30.0
176
     1
 62
     7
420
 16777215
176
     1
 90
        0
176
     1
 90
        0
176
     1
 62
     7
176
     1
 62
   257
176
     1
 90
        1
176
     1
 90
        1
176
     1
 40
1.0
176
     1
 90
        8
176
     1
 62
   257
176
     1
 40
1.0
176
     1
 90
        1
176
     1
 90
        6
176
     1
 90
        2
176
     1
 62
     7
176
     1
 90
        3
176
     1
 90
        0
176
     1
 90
        0
176
     1
290
     0
176
     1
 90
       13
176
     1
 40
0.0
176
     1
 90
        0
176
     1
290
     0
176
     1
290
     1
176
     1
290
     1
176
     1
290
     0
176
     1
290
     0
176
     1
290
     0
176
     1
290
     0
176
     1
290
     0
176
     1
290
     0
176
     1
 90
       50
176
     1
 40
0.0
176
     1
 40
1.0
176
     1
 90
        0
176
     1
 62
    18
420
        0
176
     1
 90
       50
176
     1
 90
        3
176
     1
 62
     5
420
      255
176
     1
290
     0
176
     1
 90
       50
176
     1
 90
       50
176
     1
 90
       50
176
     1
290
     0
176
     1
 90
       50
176
     1
 62
   256
176
     0
 40
1.0
176
     0
 90
        2
176
     1
  1
strokes_ogs.tif
176
     1
290
     0
176
     1
 40
1.0
176
     1
 40
1.0
176
     1
  0
VISUALSTYLE
  5
A95
102
{ACAD_REACTORS
330
A80
102
}
330
A80
100
AcDbVisualStyle
  2
Shaded
 70
    27
177
     3
291
     0
 70
    58
 90
        2
176
     1
 90
        2
176
     1
 90
        1
176
     1
 90
        2
176
     1
 40
0.6
176
     1
 40
30.0
176
     1
 62
     7
420
 16777215
176
     1
 90
        0
176
     1
 90
        4
176
     1
 62
     7
176
     1
 62
   257
176
     1
 90
        1
176
     1
 90
        1
176
     1
 40
1.0
176
     1
 90
        8
176
     1
 62
   257
176
     1
 40
1.0
176
     1
 90
        1
176
     1
 90
        6
176
     1
 90
        2
176
     1
 62
     8
420
  7895160
176
     1
 90
        3
176
     1
 90
        0
176
     1
 90
        0
176
     1
290
     0
176
     1
 90
        5
176
     1
 40
0.0
176
     1
 90
        0
176
     1
290
     0
176
     1
290
     1
176
     1
290
     1
176
     1
290
     0
176
     1
290
     0
176
     1
290
     0
176
     1
290
     0
176
     1
290
     0
176
     1
290
     0
176
     1
 90
       50
176
     1
 40
0.0
176
     1
 40
1.0
176
     1
 90
        0
176
     1
 62
    18
420
        0
176
     1
 90
       50
176
     1
 90
        3
176
     1
 62
     5
420
      255
176
     1
290
     0
176
     1
 90
       50
176
     1
 90
       50
176
     1
 90
       50
176
     1
290
     0
176
     1
 90
       50
176
     1
 62
   256
176
     0
 40
1.0
176
     0
 90
        2
176
     1
  1
strokes_ogs.tif
176
     1
290
     0
176
     1
 40
1.0
176
     1
 40
1.0
176
     1
  0
VISUALSTYLE
  5
A94
102
{ACAD_REACTORS
330
A80
102
}
330
A80
100
AcDbVisualStyle
  2
Shaded with edges
 70
    26
177
     3
291
     0
 70
    58
 90
        2
176
     1
 90
        2
176
     1
 90
        1
176
     1
 90
        2
176
     1
 40
0.6
176
     1
 40
30.0
176
     1
 62
     7
420
 16777215
176
     1
 90
        1
176
     1
 90
       10
176
     1
 62
     7
176
     1
 62
   257
176
     1
 90
        2
176
     1
 90
        1
176
     1
 40
1.0
176
     1
 90
        8
176
     1
 62
   257
176
     1
 40
1.0
176
     1
 90
        1
176
     1
 90
        6
176
     1
 90
        2
176
     1
 62
     7
176
     1
 90
        3
176
     1
 90
        0
176
     1
 90
        0
176
     1
290
     0
176
     1
 90
        5
176
     1
 40
0.0
176
     1
 90
        0
176
     1
290
     0
176
     1
290
     1
176
     1
290
     1
176
     1
290
     0
176
     1
290
     0
176
     1
290
     0
176
     1
290
     0
176
     1
290
     0
176
     1
290
     0
176
     1
 90
       50
176
     1
 40
0.0
176
     1
 40
1.0
176
     1
 90
        0
176
     1
 62
    18
420
        0
176
     1
 90
       50
176
     1
 90
        3
176
     1
 62
     5
420
      255
176
     1
290
     0
176
     1
 90
       50
176
     1
 90
       50
176
     1
 90
       50
176
     1
290
     0
176
     1
 90
       50
176
     1
 62
   256
176
     0
 40
1.0
176
     0
 90
        2
176
     1
  1
strokes_ogs.tif
176
     1
290
     0
176
     1
 40
1.0
176
     1
 40
1.0
176
     1
  0
VISUALSTYLE
  5
A91
102
{ACAD_REACTORS
330
A80
102
}
330
A80
100
AcDbVisualStyle
  2
Shades of Gray
 70
    23
177
     3
291
     0
 70
    58
 90
        2
176
     1
 90
        2
176
     1
 90
        3
176
     1
 90
        0
176
     1
 40
0.6
176
     1
 40
30.0
176
     1
 62
     7
420
 16777215
176
     1
 90
        2
176
     1
 90
        2
176
     1
 62
     7
176
     1
 62
     7
176
     1
 90
        1
176
     1
 90
        1
176
     1
 40
40.0
176
     1
 90
        8
176
     1
 62
     7
176
     1
 40
1.0
176
     1
 90
        1
176
     1
 90
        6
176
     1
 90
        2
176
     1
 62
     7
176
     1
 90
        3
176
     1
 90
        0
176
     1
 90
        0
176
     1
290
     0
176
     1
 90
        1
176
     1
 40
0.0
176
     1
 90
        0
176
     1
290
     0
176
     1
290
     1
176
     1
290
     1
176
     1
290
     0
176
     1
290
     0
176
     1
290
     0
176
     1
290
     0
176
     1
290
     0
176
     1
290
     0
176
     1
 90
       50
176
     1
 40
0.0
176
     1
 40
1.0
176
     1
 90
        0
176
     1
 62
    18
420
        0
176
     1
 90
       50
176
     1
 90
        3
176
     1
 62
     5
420
      255
176
     1
290
     0
176
     1
 90
       50
176
     1
 90
       50
176
     1
 90
       50
176
     1
290
     0
176
     1
 90
       50
176
     1
 62
   256
176
     0
 40
1.0
176
     0
 90
        2
176
     1
  1
strokes_ogs.tif
176
     1
290
     0
176
     1
 40
1.0
176
     1
 40
1.0
176
     1
  0
VISUALSTYLE
  5
A92
102
{ACAD_REACTORS
330
A80
102
}
330
A80
100
AcDbVisualStyle
  2
Sketchy
 70
    24
177
     3
291
     0
 70
    58
 90
        1
176
     1
 90
        2
176
     1
 90
        2
176
     1
 90
        0
176
     1
 40
0.6
176
     1
 40
30.0
176
     1
 62
     7
420
 16777215
176
     1
 90
        2
176
     1
 90
        2
176
     1
 62
     7
176
     1
 62
     7
176
     1
 90
        1
176
     1
 90
        1
176
     1
 40
40.0
176
     1
 90
       11
176
     1
 62
     7
176
     1
 40
1.0
176
     1
 90
        1
176
     1
 90
        6
176
     1
 90
        2
176
     1
 62
     7
176
     1
 90
        6
176
     1
 90
        0
176
     1
 90
        0
176
     1
290
     0
176
     1
 90
        1
176
     1
 40
0.0
176
     1
 90
        0
176
     1
290
     0
176
     1
290
     1
176
     1
290
     1
176
     1
290
     0
176
     1
290
     0
176
     1
290
     0
176
     1
290
     0
176
     1
290
     0
176
     1
290
     0
176
     1
 90
       50
176
     1
 40
0.0
176
     1
 40
1.0
176
     1
 90
        0
176
     1
 62
    18
420
        0
176
     1
 90
       50
176
     1
 90
        3
176
     1
 62
     5
420
      255
176
     1
290
     0
176
     1
 90
       50
176
     1
 90
       50
176
     1
 90
       50
176
     1
290
     0
176
     1
 90
       50
176
     1
 62
   256
176
     0
 40
1.0
176
     0
 90
        2
176
     1
  1
strokes_ogs.tif
176
     1
290
     0
176
     1
 40
1.0
176
     1
 40
1.0
176
     1
  0
VISUALSTYLE
  5
A8D
102
{ACAD_REACTORS
330
A80
102
}
330
A80
100
AcDbVisualStyle
  2
Thicken
 70
    13
177
     3
291
     1
 70
    58
 90
        2
176
     1
 90
        2
176
     1
 90
        0
176
     1
 90
        0
176
     1
 40
0.6
176
     1
 40
30.0
176
     1
 62
     7
420
 16777215
176
     1
 90
        1
176
     1
 90
        4
176
     1
 62
     7
176
     1
 62
   257
176
     1
 90
        1
176
     1
 90
        1
176
     1
 40
1.0
176
     1
 90
       12
176
     1
 62
     7
176
     1
 40
1.0
176
     1
 90
        1
176
     1
 90
        6
176
     1
 90
        2
176
     1
 62
     7
176
     1
 90
        5
176
     1
 90
        0
176
     1
 90
        0
176
     1
290
     0
176
     1
 90
        1
176
     1
 40
0.0
176
     1
 90
        0
176
     1
290
     0
176
     1
290
     1
176
     1
290
     1
176
     1
290
     0
176
     1
290
     0
176
     1
290
     0
176
     1
290
     0
176
     1
290
     0
176
     1
290
     0
176
     1
 90
       50
176
     1
 40
0.0
176
     1
 40
1.0
176
     1
 90
        0
176
     1
 62
    18
420
        0
176
     1
 90
       50
176
     1
 90
        3
176
     1
 62
     5
420
      255
176
     1
290
     0
176
     1
 90
       50
176
     1
 90
       50
176
     1
 90
       50
176
     1
290
     0
176
     1
 90
       50
176
     1
 62
   256
176
     0
 40
1.0
176
     0
 90
        2
176
     1
  1
strokes_ogs.tif
176
     1
290
     0
176
     1
 40
1.0
176
     1
 40
1.0
176
     1
  0
VISUALSTYLE
  5
A87
102
{ACAD_REACTORS
330
A80
102
}
330
A80
100
AcDbVisualStyle
  2
Wireframe
 70
     5
177
     3
291
     0
 70
    58
 90
        0
176
     1
 90
        2
176
     1
 90
        0
176
     1
 90
        0
176
     1
 40
0.6
176
     1
 40
30.0
176
     1
 62
     7
420
 16777215
176
     1
 90
        1
176
     1
 90
        4
176
     1
 62
     7
176
     1
 62
   257
176
     1
 90
        1
176
     1
 90
        1
176
     1
 40
1.0
176
     1
 90
        0
176
     1
 62
   257
176
     1
 40
1.0
176
     1
 90
        1
176
     1
 90
        6
176
     1
 90
        2
176
     1
 62
     7
176
     1
 90
        3
176
     1
 90
        0
176
     1
 90
        0
176
     1
290
     0
176
     1
 90
        1
176
     1
 40
0.0
176
     1
 90
        0
176
     1
290
     0
176
     1
290
     1
176
     1
290
     1
176
     1
290
     0
176
     1
290
     0
176
     1
290
     0
176
     1
290
     0
176
     1
290
     0
176
     1
290
     0
176
     1
 90
       50
176
     1
 40
0.0
176
     1
 40
1.0
176
     1
 90
        0
176
     1
 62
    18
420
        0
176
     1
 90
       50
176
     1
 90
        3
176
     1
 62
     5
420
      255
176
     1
290
     0
176
     1
 90
       50
176
     1
 90
       50
176
     1
 90
       50
176
     1
290
     0
176
     1
 90
       50
176
     1
 62
   256
176
     0
 40
1.0
176
     0
 90
        2
176
     1
  1
strokes_ogs.tif
176
     1
290
     0
176
     1
 40
1.0
176
     1
 40
1.0
176
     1
  0
VISUALSTYLE
  5
A93
102
{ACAD_REACTORS
330
A80
102
}
330
A80
100
AcDbVisualStyle
  2
X-Ray
 70
    25
177
     3
291
     0
 70
    58
 90
        2
176
     1
 90
        2
176
     1
 90
        1
176
     1
 90
        1
176
     1
 40
0.5
176
     1
 40
30.0
176
     1
 62
     7
420
 16777215
176
     1
 90
        1
176
     1
 90
        0
176
     1
 62
     7
176
     1
 62
   257
176
     1
 90
        1
176
     1
 90
        1
176
     1
 40
1.0
176
     1
 90
        8
176
     1
 62
     7
176
     1
 40
1.0
176
     1
 90
        1
176
     1
 90
        6
176
     1
 90
        2
176
     1
 62
     7
176
     1
 90
        3
176
     1
 90
        0
176
     1
 90
        0
176
     1
290
     0
176
     1
 90
       13
176
     1
 40
0.0
176
     1
 90
        0
176
     1
290
     0
176
     1
290
     1
176
     1
290
     1
176
     1
290
     0
176
     1
290
     0
176
     1
290
     0
176
     1
290
     0
176
     1
290
     0
176
     1
290
     0
176
     1
 90
       50
176
     1
 40
0.0
176
     1
 40
1.0
176
     1
 90
        0
176
     1
 62
    18
420
        0
176
     1
 90
       50
176
     1
 90
        3
176
     1
 62
     5
420
      255
176
     1
290
     0
176
     1
 90
       50
176
     1
 90
       50
176
     1
 90
       50
176
     1
290
     0
176
     1
 90
       50
176
     1
 62
   256
176
     0
 40
1.0
176
     0
 90
        2
176
     1
  1
strokes_ogs.tif
176
     1
290
     0
176
     1
 40
1.0
176
     1
 40
1.0
176
     1
  0
DICTIONARYVAR
  5
AD2
102
{ACAD_REACTORS
330
ACC
102
}
330
ACC
100
DictionaryVariables
280
     0
  1
1:1
  0
DICTIONARYVAR
  5
ACE
102
{ACAD_REACTORS
330
ACC
102
}
330
ACC
100
DictionaryVariables
280
     0
  1
STANDARD
  0
DICTIONARYVAR
  5
ACD
102
{ACAD_REACTORS
330
ACC
102
}
330
ACC
100
DictionaryVariables
280
     0
  1
STANDARD
  0
DICTIONARYVAR
  5
ACF
102
{ACAD_REACTORS
330
ACC
102
}
330
ACC
100
DictionaryVariables
280
     0
  1
Metric50
  0
DICTIONARYVAR
  5
AD0
102
{ACAD_REACTORS
330
ACC
102
}
330
ACC
100
DictionaryVariables
280
     0
  1
Metric50
  0
DICTIONARYVAR
  5
AD4
102
{ACAD_REACTORS
330
ACC
102
}
330
ACC
100
DictionaryVariables
280
     0
  1
1
  0
DICTIONARYVAR
  5
AD5
102
{ACAD_REACTORS
330
ACC
102
}
330
ACC
100
DictionaryVariables
280
     0
  1
15
  0
DICTIONARYVAR
  5
AD3
102
{ACAD_REACTORS
330
ACC
102
}
330
ACC
100
DictionaryVariables
280
     0
  1
0
  0
DICTIONARYVAR
  5
AD1
102
{ACAD_REACTORS
330
ACC
102
}
330
ACC
100
DictionaryVariables
280
     0
  1
0
  0
DICTIONARY
  5
AFB
330
AA1
100
AcDbDictionary
280
     1
281
     1
  3
ACAD_XREC_ROUNDTRIP
360
AFC
  0
DICTIONARY
  5
A71
330
A70
100
AcDbDictionary
280
     1
281
     1
  3
BUMPTILE
360
A73
  3
DIFFUSETILE
360
A72
  3
OPACITYTILE
360
A76
  3
REFLECTIONTILE
360
A75
  3
REFRACTIONTILE
360
A77
  3
SPECULARTILE
360
A74
  0
DICTIONARY
  5
A69
330
A68
100
AcDbDictionary
280
     1
281
     1
  3
BUMPTILE
360
A6B
  3
DIFFUSETILE
360
A6A
  3
OPACITYTILE
360
A6E
  3
REFLECTIONTILE
360
A6D
  3
REFRACTIONTILE
360
A6F
  3
SPECULARTILE
360
A6C
  0
DICTIONARY
  5
A79
330
A78
100
AcDbDictionary
280
     1
281
     1
  3
BUMPTILE
360
A7B
  3
DIFFUSETILE
360
A7A
  3
OPACITYTILE
360
A7E
  3
REFLECTIONTILE
360
A7D
  3
REFRACTIONTILE
360
A7F
  3
SPECULARTILE
360
A7C
  0
DICTIONARY
  5
AF9
330
A9F
100
AcDbDictionary
280
     1
281
     1
  3
ACAD_XREC_ROUNDTRIP
360
AFA
  0
DICTIONARY
  5
AF7
330
A9B
100
AcDbDictionary
280
     1
281
     1
  3
ACAD_ROUNDTRIP_2008_TABLESTYLE_CELLSTYLEMAP
360
AF8
  0
XRECORD
  5
AFC
102
{ACAD_REACTORS
330
AFB
102
}
330
AFB
100
AcDbXrecord
280
     1
102
DISPLAYNAME
  1
Metric50
102
FLAGS
 90
        0
  0
XRECORD
  5
A73
102
{ACAD_REACTORS
330
A71
102
}
330
A71
100
AcDbXrecord
280
     1
270
     1
271
     1
  0
XRECORD
  5
A72
102
{ACAD_REACTORS
330
A71
102
}
330
A71
100
AcDbXrecord
280
     1
270
     1
271
     1
  0
XRECORD
  5
A76
102
{ACAD_REACTORS
330
A71
102
}
330
A71
100
AcDbXrecord
280
     1
270
     1
271
     1
  0
XRECORD
  5
A75
102
{ACAD_REACTORS
330
A71
102
}
330
A71
100
AcDbXrecord
280
     1
270
     1
271
     1
  0
XRECORD
  5
A77
102
{ACAD_REACTORS
330
A71
102
}
330
A71
100
AcDbXrecord
280
     1
270
     1
271
     1
  0
XRECORD
  5
A74
102
{ACAD_REACTORS
330
A71
102
}
330
A71
100
AcDbXrecord
280
     1
270
     1
271
     1
  0
XRECORD
  5
A6B
102
{ACAD_REACTORS
330
A69
102
}
330
A69
100
AcDbXrecord
280
     1
270
     1
271
     1
  0
XRECORD
  5
A6A
102
{ACAD_REACTORS
330
A69
102
}
330
A69
100
AcDbXrecord
280
     1
270
     1
271
     1
  0
XRECORD
  5
A6E
102
{ACAD_REACTORS
330
A69
102
}
330
A69
100
AcDbXrecord
280
     1
270
     1
271
     1
  0
XRECORD
  5
A6D
102
{ACAD_REACTORS
330
A69
102
}
330
A69
100
AcDbXrecord
280
     1
270
     1
271
     1
  0
XRECORD
  5
A6F
102
{ACAD_REACTORS
330
A69
102
}
330
A69
100
AcDbXrecord
280
     1
270
     1
271
     1
  0
XRECORD
  5
A6C
102
{ACAD_REACTORS
330
A69
102
}
330
A69
100
AcDbXrecord
280
     1
270
     1
271
     1
  0
XRECORD
  5
A7B
102
{ACAD_REACTORS
330
A79
102
}
330
A79
100
AcDbXrecord
280
     1
270
     1
271
     1
  0
XRECORD
  5
A7A
102
{ACAD_REACTORS
330
A79
102
}
330
A79
100
AcDbXrecord
280
     1
270
     1
271
     1
  0
XRECORD
  5
A7E
102
{ACAD_REACTORS
330
A79
102
}
330
A79
100
AcDbXrecord
280
     1
270
     1
271
     1
  0
XRECORD
  5
A7D
102
{ACAD_REACTORS
330
A79
102
}
330
A79
100
AcDbXrecord
280
     1
270
     1
271
     1
  0
XRECORD
  5
A7F
102
{ACAD_REACTORS
330
A79
102
}
330
A79
100
AcDbXrecord
280
     1
270
     1
271
     1
  0
XRECORD
  5
A7C
102
{ACAD_REACTORS
330
A79
102
}
330
A79
100
AcDbXrecord
280
     1
270
     1
271
     1
  0
XRECORD
  5
AFA
102
{ACAD_REACTORS
330
AF9
102
}
330
AF9
100
AcDbXrecord
280
     1
102
DISPLAYNAME
  1
Metric50
102
FLAGS
 90
        0
  0
CELLSTYLEMAP
  5
AF8
102
{ACAD_REACTORS
330
AF7
102
}
330
AF7
100
AcDbCellStyleMap
 90
        3
300
CELLSTYLE
  1
TABLEFORMAT_BEGIN
 90
        5
170
     1
 91
        0
 92
    32768
 62
   257
 93
        1
300
CONTENTFORMAT
  1
CONTENTFORMAT_BEGIN
 90
        0
 91
        0
 92
      512
 93
        0
300

 40
0.0
140
1.0
 94
        5
 62
     0
340
11
144
6.0
309
CONTENTFORMAT_END
171
     1
301
MARGIN
  1
CELLMARGIN_BEGIN
 40
1.5
 40
1.5
 40
1.5
 40
1.5
 40
4.5
 40
4.5
309
CELLMARGIN_END
 94
        6
 95
        1
302
GRIDFORMAT
  1
GRIDFORMAT_BEGIN
 90
        0
 91
        1
 62
     0
 92
       -2
340
0
 93
        0
 40
1.125
309
GRIDFORMAT_END
 95
        2
302
GRIDFORMAT
  1
GRIDFORMAT_BEGIN
 90
        0
 91
        1
 62
     0
 92
       -2
340
0
 93
        0
 40
1.125
309
GRIDFORMAT_END
 95
        4
302
GRIDFORMAT
  1
GRIDFORMAT_BEGIN
 90
        0
 91
        1
 62
     0
 92
       -2
340
0
 93
        0
 40
1.125
309
GRIDFORMAT_END
 95
        8
302
GRIDFORMAT
  1
GRIDFORMAT_BEGIN
 90
        0
 91
        1
 62
     0
 92
       -2
340
0
 93
        0
 40
1.125
309
GRIDFORMAT_END
 95
       16
302
GRIDFORMAT
  1
GRIDFORMAT_BEGIN
 90
        0
 91
        1
 62
     0
 92
       -2
340
0
 93
        0
 40
1.125
309
GRIDFORMAT_END
 95
       32
302
GRIDFORMAT
  1
GRIDFORMAT_BEGIN
 90
        0
 91
        1
 62
     0
 92
       -2
340
0
 93
        0
 40
1.125
309
GRIDFORMAT_END
309
TABLEFORMAT_END
  1
CELLSTYLE_BEGIN
 90
        1
 91
        1
300
_TITLE
309
CELLSTYLE_END
300
CELLSTYLE
  1
TABLEFORMAT_BEGIN
 90
        5
170
     1
 91
        0
 92
        0
 62
   257
 93
        1
300
CONTENTFORMAT
  1
CONTENTFORMAT_BEGIN
 90
        0
 91
        0
 92
      512
 93
        0
300

 40
0.0
140
1.0
 94
        5
 62
     0
340
11
144
4.5
309
CONTENTFORMAT_END
171
     1
301
MARGIN
  1
CELLMARGIN_BEGIN
 40
1.5
 40
1.5
 40
1.5
 40
1.5
 40
4.5
 40
4.5
309
CELLMARGIN_END
 94
        6
 95
        1
302
GRIDFORMAT
  1
GRIDFORMAT_BEGIN
 90
        0
 91
        1
 62
     0
 92
       -2
340
0
 93
        0
 40
1.125
309
GRIDFORMAT_END
 95
        2
302
GRIDFORMAT
  1
GRIDFORMAT_BEGIN
 90
        0
 91
        1
 62
     0
 92
       -2
340
0
 93
        0
 40
1.125
309
GRIDFORMAT_END
 95
        4
302
GRIDFORMAT
  1
GRIDFORMAT_BEGIN
 90
        0
 91
        1
 62
     0
 92
       -2
340
0
 93
        0
 40
1.125
309
GRIDFORMAT_END
 95
        8
302
GRIDFORMAT
  1
GRIDFORMAT_BEGIN
 90
        0
 91
        1
 62
     0
 92
       -2
340
0
 93
        0
 40
1.125
309
GRIDFORMAT_END
 95
       16
302
GRIDFORMAT
  1
GRIDFORMAT_BEGIN
 90
        0
 91
        1
 62
     0
 92
       -2
340
0
 93
        0
 40
1.125
309
GRIDFORMAT_END
 95
       32
302
GRIDFORMAT
  1
GRIDFORMAT_BEGIN
 90
        0
 91
        1
 62
     0
 92
       -2
340
0
 93
        0
 40
1.125
309
GRIDFORMAT_END
309
TABLEFORMAT_END
  1
CELLSTYLE_BEGIN
 90
        2
 91
        1
300
_HEADER
309
CELLSTYLE_END
300
CELLSTYLE
  1
TABLEFORMAT_BEGIN
 90
        5
170
     1
 91
        0
 92
        0
 62
   257
 93
        1
300
CONTENTFORMAT
  1
CONTENTFORMAT_BEGIN
 90
        0
 91
        0
 92
      512
 93
        0
300

 40
0.0
140
1.0
 94
        2
 62
     0
340
11
144
4.5
309
CONTENTFORMAT_END
171
     1
301
MARGIN
  1
CELLMARGIN_BEGIN
 40
1.5
 40
1.5
 40
1.5
 40
1.5
 40
4.5
 40
4.5
309
CELLMARGIN_END
 94
        6
 95
        1
302
GRIDFORMAT
  1
GRIDFORMAT_BEGIN
 90
        0
 91
        1
 62
     0
 92
       -2
340
0
 93
        0
 40
1.125
309
GRIDFORMAT_END
 95
        2
302
GRIDFORMAT
  1
GRIDFORMAT_BEGIN
 90
        0
 91
        1
 62
     0
 92
       -2
340
0
 93
        0
 40
1.125
309
GRIDFORMAT_END
 95
        4
302
GRIDFORMAT
  1
GRIDFORMAT_BEGIN
 90
        0
 91
        1
 62
     0
 92
       -2
340
0
 93
        0
 40
1.125
309
GRIDFORMAT_END
 95
        8
302
GRIDFORMAT
  1
GRIDFORMAT_BEGIN
 90
        0
 91
        1
 62
     0
 92
       -2
340
0
 93
        0
 40
1.125
309
GRIDFORMAT_END
 95
       16
302
GRIDFORMAT
  1
GRIDFORMAT_BEGIN
 90
        0
 91
        1
 62
     0
 92
       -2
340
0
 93
        0
 40
1.125
309
GRIDFORMAT_END
 95
       32
302
GRIDFORMAT
  1
GRIDFORMAT_BEGIN
 90
        0
 91
        1
 62
     0
 92
       -2
340
0
 93
        0
 40
1.125
309
GRIDFORMAT_END
309
TABLEFORMAT_END
  1
CELLSTYLE_BEGIN
 90
        3
 91
        2
300
_DATA
309
CELLSTYLE_END
  0
ENDSEC
  0
SECTION
  2
ACDSDATA
 70
     2
 71
     8
  0
ACDSSCHEMA
 90
        0
  1
AcDb_Thumbnail_Schema
  2
AcDbDs::ID
280
    10
 91
        8
  2
Thumbnail_Data
280
    15
 91
        0
101
ACDSRECORD
 95
        0
 90
        1
  2
AcDbDs::TreatedAsObjectData
280
     1
291
     1
101
ACDSRECORD
 95
        0
 90
        2
  2
AcDbDs::Legacy
280
     1
291
     1
101
ACDSRECORD
  1
AcDbDs::ID
 90
        3
  2
AcDs:Indexable
280
     1
291
     1
101
ACDSRECORD
  1
AcDbDs::ID
 90
        4
  2
AcDbDs::HandleAttribute
280
     7
282
     1
  0
ACDSSCHEMA
 90
        1
  1
AcDbDs::TreatedAsObjectDataSchema
  2
AcDbDs::TreatedAsObjectData
280
     1
 91
        0
  0
ACDSSCHEMA
 90
        2
  1
AcDbDs::LegacySchema
  2
AcDbDs::Legacy
280
     1
 91
        0
  0
ACDSSCHEMA
 90
        3
  1
AcDbDs::IndexedPropertySchema
  2
AcDs:Indexable
280
     1
 91
        0
  0
ACDSSCHEMA
 90
        4
  1
AcDbDs::HandleAttributeSchema
  2
AcDbDs::HandleAttribute
280
     7
 91
        1
284
     1
  0
ACDSRECORD
 90
        0
  2
AcDbDs::ID
280
    10
320
22
  2
Thumbnail_Data
280
    15
 94
     1582
310
89504E470D0A1A0A0000000D49484452000001000000007B0803000000AC3EAEE200000300504C5445212830000000C8C8C80000000000000000000000000000000000000000000000000000330000660000990000CC0000FF0033000033330033660033990033CC0033FF0066000066330066660066990066CC0066FF0099
310
000099330099660099990099CC0099FF00CC0000CC3300CC6600CC9900CCCC00CCFF00FF0000FF3300FF6600FF9900FFCC00FFFF3300003300333300663300993300CC3300FF3333003333333333663333993333CC3333FF3366003366333366663366993366CC3366FF3399003399333399663399993399CC3399FF33CC00
310
33CC3333CC6633CC9933CCCC33CCFF33FF0033FF3333FF6633FF9933FFCC33FFFF6600006600336600666600996600CC6600FF6633006633336633666633996633CC6633FF6666006666336666666666996666CC6666FF6699006699336699666699996699CC6699FF66CC0066CC3366CC6666CC9966CCCC66CCFF66FF0066
310
FF3366FF6666FF9966FFCC66FFFF9900009900339900669900999900CC9900FF9933009933339933669933999933CC9933FF9966009966339966669966999966CC9966FF9999009999339999669999999999CC9999FF99CC0099CC3399CC6699CC9999CCCC99CCFF99FF0099FF3399FF6699FF9999FFCC99FFFFCC0000CC00
310
33CC0066CC0099CC00CCCC00FFCC3300CC3333CC3366CC3399CC33CCCC33FFCC6600CC6633CC6666CC6699CC66CCCC66FFCC9900CC9933CC9966CC9999CC99CCCC99FFCCCC00CCCC33CCCC66CCCC99CCCCCCCCCCFFCCFF00CCFF33CCFF66CCFF99CCFFCCCCFFFFFF0000FF0033FF0066FF0099FF00CCFF00FFFF3300FF3333
310
FF3366FF3399FF33CCFF33FFFF6600FF6633FF6666FF6699FF66CCFF66FFFF9900FF9933FF9966FF9999FF99CCFF99FFFFCC00FFCC33FFCC66FFCC99FFCCCCFFCCFFFFFF00FFFF33FFFF66FFFF99FFFFCCFFFFFF0000000D0D0D1A1A1A2828283535354343435050505D5D5D6B6B6B787878868686939393A1A1A1AEAEAEBB
310
BBBBC9C9C9D6D6D6E4E4E4F1F1F1FFFFFF000000000000000000000000000000000000000000000000000000000000B21171F6000002E94944415478DAED9BC14EC4300C44F3FFFF3B77244A13C771D208EDC1CDBE2781E8B2803C751C7B524A01000000000000000000000000F8079AF31DD19721E4EF116279EFCDC5A912
310
5C37BF6582B9BCBFD93E9F9AFF7F5FD4D550A529FD723851821A920FFF3701BADA504E2C057DFCF596D704D02C5F8E4CFF2EE2AB028C15E3A465500354BDEA132014E09C2C68F7BFA9F19000F6AD276CFFA60CA87801C230554E51A0EEF8EA9683DD02E21FEBBBA3F7F67DBE0374D793F84D86BC4A02697FD899BC6E5E7CD9
310
882033EA3C29B2D02D4882AE8F487EDF37936167FE537983003E844980FFC8630D7F2569F4C17EDF8A5DF0A6B29D24E15E9AB0BB716647713EC7D672DF1D22F235377EDC374DBF9E126667115CAAA6134061FADA11E713FB98FA3D31597B37E472EFF77D62D5AAC9985000DBD245D550D1883BC9042D3CB4AA643A01867560
310
645038C7DC1B43503EA665F6FEC83614D511AE4B79E37844BB8431037704B01D44BEA1D08673C7AD6EBE53BCA0A321577AEC2D130A70577D9B0373015C8D58F7F9F5A8605E4EF20820DBFA75B56B1DE2469F3FD8E7C996C09DF70A37FFA2C11419DDA127016A15CC6A730D35DDE4808BF05A2E46A54701EAE951CE15509CB9
310
B312E00EBD6D117D1570C3642B1A79CF48D4669F7E566D879D4147671D40699C22FAB343D9DE21A1021B9D7EDB1D64869B563FFCEF1AA74849594F07CCD417599F720699EAF1879C2D6CA786C856CA6B86F5EEF6DCD2B01D62EB11664641A0735A37D06772BC14CCF6A7321160392FE775431554F0717033777E14404B6FBC
310
243F1E94EB711535BAFDCEA73A45CC6D83A5AB94B00E6AECEED49DEB3801CC4B0A7CC5579D8269E28F0E7EB002872FB07DDF7702B8285CCE216D4D5399AEF777B26881E4ED80A0497CF93310F39B17DB5ED6DF3DE341A8F969605C2F6A2774D2F33F9108330321A5C5FD71111EDF74E6A3B0FB597DF2D3D0CFB971F863F1E3
310
30DBC5FC35FF14307B5CA40000000000000000000000000000000000000000000000400A7E00367CF6C316ED16900000000049454E44AE426082
  0
ENDSEC
  0
EOF
